<svg width="53" height="70" viewBox="0 0 53 70" fill="none" xmlns="http://www.w3.org/2000/svg">
<path d="M49.6901 23.5554C53.6552 21.9554 53.98 16.467 50.2313 14.4105L25.1021 0.625168C22.9153 -0.574461 20.1808 -0.00498209 18.6547 1.96787L1.06028 24.7129C-0.811149 27.1322 -0.129911 30.6453 2.51014 32.1897L6.05395 34.2628C8.09085 35.4544 9.03603 37.894 8.33365 40.1469L1.35406 62.5338C-0.184462 67.4686 5.78416 71.2707 9.60613 67.7905L36.6638 43.1524C38.7626 41.2413 38.4057 37.8427 35.9555 36.4094C32.9384 34.6444 33.2642 30.1835 36.5056 28.8755L49.6901 23.5554Z" fill="url(#paint0_linear_10_59)"/>
<defs>
<linearGradient id="paint0_linear_10_59" x1="53.7731" y1="16.141" x2="16.3516" y2="-1.73131" gradientUnits="userSpaceOnUse">
<stop stop-color="#FF6432"/>
<stop offset="1" stop-color="#FFA228"/>
</linearGradient>
</defs>
</svg>
