<svg width="104" height="36" viewBox="0 0 104 36" fill="none" xmlns="http://www.w3.org/2000/svg">
<path d="M103.471 27.7915C103.933 27.3297 103.933 26.581 103.471 26.1193L95.9459 18.5943C95.4841 18.1325 94.7355 18.1325 94.2737 18.5943C93.8119 19.056 93.8119 19.8047 94.2737 20.2665L100.963 26.9554L94.2737 33.6442C93.8119 34.106 93.8119 34.8547 94.2737 35.3164C94.7355 35.7782 95.4841 35.7782 95.9459 35.3164L103.471 27.7915ZM50.1918 13.1942C49.8095 12.6648 49.0704 12.5456 48.5409 12.9279C48.0115 13.3103 47.8923 14.0494 48.2747 14.5788L50.1918 13.1942ZM74.7927 26.9554L74.7927 25.7729L74.7927 26.9554ZM48.2747 14.5788C48.657 15.1082 49.3962 15.2274 49.9256 14.8451C50.455 14.4627 50.5742 13.7236 50.1918 13.1942L48.2747 14.5788ZM3.95366 6.6333C4.57832 6.44285 4.93032 5.78208 4.73987 5.15743C4.54943 4.53277 3.88866 4.18078 3.26401 4.37122L3.95366 6.6333ZM10.8704 2.05219C10.2458 2.24264 9.89376 2.9034 10.0842 3.52806C10.2746 4.15271 10.9354 4.50471 11.5601 4.31427L10.8704 2.05219ZM19.0616 2.35125C19.707 2.25177 20.1496 1.6479 20.0501 1.00248C19.9506 0.357065 19.3467 -0.0855023 18.7013 0.0139827L19.0616 2.35125ZM29.5747 0.171169C28.9324 0.0531977 28.3161 0.478248 28.1981 1.12055C28.0802 1.76284 28.5052 2.37916 29.1475 2.49713L29.5747 0.171169ZM37.3638 5.26277C37.9467 5.55721 38.6579 5.32336 38.9523 4.74046C39.2468 4.15757 39.0129 3.44635 38.43 3.15191L37.3638 5.26277ZM47.1852 9.60183C46.7314 9.13231 45.9828 9.11964 45.5133 9.57353C45.0438 10.0274 45.0311 10.776 45.485 11.2455L47.1852 9.60183ZM50.5187 17.3538C50.9564 17.8385 51.7041 17.8765 52.1887 17.4388C52.6734 17.0011 52.7114 16.2534 52.2737 15.7688L50.5187 17.3538ZM58.1165 20.7803C57.5709 20.4214 56.8377 20.5729 56.4789 21.1185C56.12 21.6641 56.2715 22.3973 56.8171 22.7561L58.1165 20.7803ZM63.1621 26.0004C63.7724 26.2326 64.4555 25.9261 64.6877 25.3158C64.9199 24.7054 64.6134 24.0223 64.0031 23.7901L63.1621 26.0004ZM71.4867 25.5926C70.8375 25.5215 70.2536 25.9901 70.1826 26.6393C70.1115 27.2884 70.5801 27.8723 71.2293 27.9434L71.4867 25.5926ZM81.2222 28.1378C81.8752 28.1378 82.4046 27.6084 82.4046 26.9554C82.4046 26.3023 81.8752 25.7729 81.2222 25.7729L81.2222 28.1378ZM96.2054 25.7729C95.5523 25.7729 95.0229 26.3023 95.0229 26.9554C95.0229 27.6084 95.5523 28.1378 96.2054 28.1378L96.2054 25.7729ZM0.689677 7.62841L3.95366 6.6333L3.26401 4.37122L1.97744e-05 5.36634L0.689677 7.62841ZM11.5601 4.31427L14.8241 3.31915L14.1344 1.05707L10.8704 2.05219L11.5601 4.31427ZM14.8241 3.31915C16.227 2.89143 17.6428 2.56995 19.0616 2.35125L18.7013 0.0139827C17.1717 0.249764 15.6458 0.596294 14.1344 1.05707L14.8241 3.31915ZM29.1475 2.49713C32.0036 3.02171 34.7718 3.95352 37.3638 5.26277L38.43 3.15191C35.6364 1.74081 32.653 0.736553 29.5747 0.171169L29.1475 2.49713ZM45.485 11.2455C46.4827 12.2776 47.416 13.3898 48.2747 14.5788L50.1918 13.1942C49.2667 11.9133 48.261 10.7146 47.1852 9.60183L45.485 11.2455ZM48.2747 14.5788C48.9758 15.5497 49.7254 16.4755 50.5187 17.3538L52.2737 15.7688C51.5378 14.9539 50.8424 14.095 50.1918 13.1942L48.2747 14.5788ZM56.8171 22.7561C58.8075 24.0652 60.9355 25.1532 63.1621 26.0004L64.0031 23.7901C61.9374 23.0041 59.9632 21.9947 58.1165 20.7803L56.8171 22.7561ZM71.2293 27.9434C72.4058 28.0722 73.5952 28.1378 74.7927 28.1378L74.7927 25.7729C73.6815 25.7729 72.5781 25.7121 71.4867 25.5926L71.2293 27.9434ZM74.7927 28.1378L81.2222 28.1378L81.2222 25.7729L74.7927 25.7729L74.7927 28.1378ZM96.2054 28.1378L102.635 28.1378L102.635 25.7729L96.2054 25.7729L96.2054 28.1378Z" fill="#A3A3A3"/>
</svg>
