<svg width="147" height="146" viewBox="0 0 147 146" fill="none" xmlns="http://www.w3.org/2000/svg">
<path d="M145.855 141.482C146.49 141.246 146.814 140.54 146.579 139.905L142.742 129.557C142.506 128.922 141.801 128.598 141.165 128.833C140.53 129.069 140.207 129.775 140.442 130.41L143.853 139.608L134.654 143.019C134.019 143.254 133.695 143.96 133.931 144.595C134.166 145.23 134.872 145.554 135.507 145.319L145.855 141.482ZM73.6972 77.1125C73.9798 76.497 73.7099 75.769 73.0943 75.4864C72.4788 75.2039 71.7508 75.4738 71.4682 76.0893L73.6972 77.1125ZM62.7693 42.1664L63.4467 41.1441L62.7693 42.1664ZM71.4682 76.0893C71.1857 76.7049 71.4556 77.4329 72.0711 77.7154C72.6867 77.998 73.4147 77.728 73.6972 77.1125L71.4682 76.0893ZM4.13945 4.78746C4.70403 5.16157 5.46498 5.00716 5.83909 4.44258C6.21319 3.87801 6.05879 3.11705 5.49421 2.74295L4.13945 4.78746ZM17.9126 10.9718C17.348 10.5977 16.5871 10.7521 16.213 11.3166C15.8388 11.8812 15.9933 12.6422 16.5578 13.0163L17.9126 10.9718ZM24.8368 18.5022C25.4013 18.8763 26.1623 18.7219 26.5364 18.1573C26.9105 17.5927 26.7561 16.8318 26.1915 16.4576L24.8368 18.5022ZM38.6099 24.6865C38.0453 24.3124 37.2844 24.4668 36.9103 25.0313C36.5362 25.5959 36.6906 26.3569 37.2551 26.731L38.6099 24.6865ZM45.5341 32.2169C46.0986 32.591 46.8596 32.4366 47.2337 31.872C47.6078 31.3074 47.4534 30.5465 46.8888 30.1723L45.5341 32.2169ZM59.3072 38.4012C58.7426 38.0271 57.9817 38.1815 57.6076 38.746C57.2335 39.3106 57.3879 40.0716 57.9524 40.4457L59.3072 38.4012ZM65.0434 45.4578C65.5498 45.9075 66.3249 45.8615 66.7746 45.355C67.2243 44.8486 67.1783 44.0735 66.6718 43.6238L65.0434 45.4578ZM73.8301 53.4104C73.5547 52.7917 72.8299 52.5133 72.2111 52.7887C71.5924 53.0641 71.314 53.7889 71.5894 54.4077L73.8301 53.4104ZM73.6246 61.5491C73.7168 62.22 74.3354 62.6893 75.0064 62.5971C75.6774 62.5049 76.1466 61.8863 76.0544 61.2153L73.6246 61.5491ZM75.1307 73.3052C75.324 72.6561 74.9545 71.9732 74.3054 71.7799C73.6563 71.5865 72.9734 71.956 72.7801 72.6051L75.1307 73.3052ZM69.9096 80.3237C69.7261 80.9756 70.1057 81.6529 70.7577 81.8365C71.4096 82.0201 72.0869 81.6404 72.2705 80.9884L69.9096 80.3237ZM71.8107 93.259C71.6769 92.595 71.0302 92.1652 70.3663 92.299C69.7024 92.4327 69.2726 93.0794 69.4063 93.7433L71.8107 93.259ZM72.5339 102.179C72.8653 102.769 73.6128 102.979 74.2034 102.648C74.7941 102.316 75.0042 101.569 74.6728 100.978L72.5339 102.179ZM83.021 109.983C82.4568 109.608 81.6957 109.762 81.321 110.326C80.9463 110.89 81.0999 111.652 81.6641 112.026L83.021 109.983ZM89.5606 116.036C90.1761 116.319 90.9041 116.049 91.1867 115.433C91.4692 114.818 91.1993 114.09 90.5837 113.807L89.5606 116.036ZM102.446 119.252C101.83 118.969 101.102 119.239 100.82 119.855C100.537 120.47 100.807 121.199 101.423 121.481L102.446 119.252ZM109.331 125.111C109.946 125.394 110.674 125.124 110.957 124.508C111.239 123.893 110.969 123.165 110.354 122.882L109.331 125.111ZM122.216 128.327C121.601 128.045 120.873 128.315 120.59 128.93C120.307 129.546 120.577 130.274 121.193 130.556L122.216 128.327ZM129.101 134.186C129.717 134.469 130.445 134.199 130.727 133.583C131.01 132.968 130.74 132.24 130.124 131.957L129.101 134.186ZM141.986 137.402C141.371 137.12 140.643 137.39 140.36 138.005C140.078 138.621 140.348 139.349 140.963 139.631L141.986 137.402ZM-1.23278e-05 2.04452L4.13945 4.78746L5.49421 2.74295L1.35475 5.39117e-06L-1.23278e-05 2.04452ZM16.5578 13.0163L24.8368 18.5022L26.1915 16.4576L17.9126 10.9718L16.5578 13.0163ZM37.2551 26.731L45.5341 32.2169L46.8888 30.1723L38.6099 24.6865L37.2551 26.731ZM57.9524 40.4457L62.0919 43.1886L63.4467 41.1441L59.3072 38.4012L57.9524 40.4457ZM62.0919 43.1886C63.1412 43.8839 64.1258 44.6431 65.0434 45.4578L66.6718 43.6238C65.6684 42.7329 64.5925 41.9033 63.4467 41.1441L62.0919 43.1886ZM71.5894 54.4077C72.6005 56.6796 73.2862 59.0854 73.6246 61.5491L76.0544 61.2153C75.6845 58.5227 74.9352 55.8935 73.8301 53.4104L71.5894 54.4077ZM72.7801 72.6051C72.4298 73.7812 71.9934 74.9453 71.4682 76.0893L73.6972 77.1125C74.2707 75.8633 74.7477 74.5912 75.1307 73.3052L72.7801 72.6051ZM71.4682 76.0893C70.8301 77.4795 70.3119 78.8949 69.9096 80.3237L72.2705 80.9884C72.6383 79.6819 73.1125 78.3864 73.6972 77.1125L71.4682 76.0893ZM69.4063 93.7433C70.0019 96.6996 71.0582 99.5485 72.5339 102.179L74.6728 100.978C73.3224 98.5716 72.3556 95.9643 71.8107 93.259L69.4063 93.7433ZM81.6641 112.026C82.9007 112.847 84.2164 113.583 85.6065 114.221L86.6297 111.992C85.3558 111.407 84.1517 110.734 83.021 109.983L81.6641 112.026ZM85.6065 114.221L89.5606 116.036L90.5837 113.807L86.6297 111.992L85.6065 114.221ZM101.423 121.481L109.331 125.111L110.354 122.882L102.446 119.252L101.423 121.481ZM121.193 130.556L129.101 134.186L130.124 131.957L122.216 128.327L121.193 130.556ZM140.963 139.631L144.917 141.446L145.94 139.217L141.986 137.402L140.963 139.631Z" fill="#A3A3A3"/>
</svg>
