<svg width="475" height="153" viewBox="0 0 475 153" fill="none" xmlns="http://www.w3.org/2000/svg">
<mask id="path-1-outside-1_26_14" maskUnits="userSpaceOnUse" x="-0.35791" y="-0.374664" width="475" height="154" fill="black">
<rect fill="white" x="-0.35791" y="-0.374664" width="475" height="154"/>
<path d="M195.969 151.687C193.451 151.687 191.772 151.057 190.932 149.798C188.414 146.16 187.155 141.753 187.155 136.576C187.155 124.543 193.591 107.264 206.463 84.7381C214.718 70.6069 227.45 51.5787 244.659 27.6535C237.384 33.6698 229.478 40.5955 220.944 48.4306C212.409 56.2658 203.245 64.9404 193.451 74.4545C180.719 86.9068 170.295 97.89 162.18 107.404C154.205 116.778 148.469 124.543 144.971 130.7C141.333 137.276 136.926 140.564 131.749 140.564C129.37 140.564 128.181 139.724 128.181 138.045C128.181 137.485 128.391 136.926 128.811 136.366C131.189 132.588 134.267 127.622 138.045 121.465C141.823 115.169 146.3 107.684 151.477 99.0093C166.587 72.7056 177.431 51.7885 184.007 36.2582C186.385 30.3818 187.574 26.1144 187.574 23.4561C187.574 21.2175 186.805 20.0982 185.266 20.0982C183.167 20.0982 179.879 21.987 175.402 25.7646C159.872 38.7766 142.452 56.8954 123.144 80.121C115.029 89.775 107.894 98.7294 101.738 106.984C95.7213 115.099 90.6145 122.445 86.4171 129.021C83.0592 134.197 81.3802 137.905 81.3802 140.144C81.3802 140.983 81.66 141.543 82.2197 141.823C82.9192 142.242 83.269 142.452 83.269 142.452C83.269 142.592 82.0098 143.642 79.4914 145.6C77.2528 146.72 74.7343 147.279 71.936 147.279C66.1996 147.279 63.7511 145.95 64.5906 143.292C66.5494 136.996 73.0554 125.593 84.1085 109.083C98.5196 87.6763 107.894 73.0554 112.231 65.2202C121.605 48.2907 126.292 34.7891 126.292 24.7153C126.292 17.7196 124.473 12.7527 120.836 9.81454C117.198 6.87636 111.671 5.40727 104.256 5.40727C87.8862 5.40727 70.9567 12.4729 53.4675 26.6041C45.9122 32.7603 38.8466 39.756 32.2706 47.5911C25.6947 55.2864 20.378 63.3314 16.3205 71.7262C12.263 80.121 10.2343 88.3759 10.2343 96.4908C10.2343 111.042 17.09 118.317 30.8015 118.317C46.8916 118.317 59.3439 112.511 68.1584 100.898C71.5163 96.281 73.1953 91.9436 73.1953 87.8862C73.1953 85.5076 72.4957 83.8986 71.0966 83.0591C70.9567 82.9192 70.8867 82.7094 70.8867 82.4295C70.8867 81.8699 71.3064 81.5901 72.1459 81.5901C75.7837 81.5901 77.6025 83.9686 77.6025 88.7256C77.6025 91.6638 76.3433 95.3715 73.8249 99.8487C70.6069 105.445 65.7799 110.202 59.3439 114.12C51.2289 119.157 42.2744 121.675 32.4805 121.675C22.9664 121.675 15.3411 118.667 9.60468 112.651C3.86823 106.635 1.00001 98.7294 1.00001 88.9355C1.00001 66.8292 15.4111 44.2332 44.2332 21.1475C49.5499 16.9501 55.846 13.3823 63.1215 10.4442C70.5369 7.36606 78.1622 5.05749 85.9973 3.51844C93.8325 1.83948 101.038 1 107.614 1C117.128 1 124.334 2.60901 129.231 5.82701C134.267 8.90511 136.786 14.3617 136.786 22.1969C136.786 31.9908 132.798 45.2126 124.823 61.8623C122.305 67.0391 116.638 76.4832 107.824 90.1947L123.984 69.6275C128.041 64.3108 133.498 58.0147 140.354 50.7392C147.209 43.4637 155.324 35.2088 164.699 25.9745C168.756 22.057 173.373 18.699 178.55 15.9008C183.727 13.1025 188.134 11.7034 191.772 11.7034C196.809 11.7034 199.327 14.3617 199.327 19.6784C199.327 24.2956 197.438 30.5917 193.661 38.5667C188.624 49.2001 182.328 61.5825 174.772 75.7137C172.394 80.051 170.785 83.7587 169.945 86.8368C169.106 89.9149 168.546 91.6638 168.266 92.0836C168.826 91.384 170.155 89.775 172.254 87.2565C174.492 84.5982 177.571 81.0304 181.488 76.5532C186.245 71.2365 191.912 65.4301 198.488 59.134C205.064 52.698 212.619 45.8422 221.154 38.5667L254.733 10.8639C257.391 8.62528 259.77 7.50598 261.868 7.50598C263.827 7.50598 265.226 8.69524 266.066 11.0738C267.045 13.3124 268.025 16.2506 269.004 19.8883C269.704 22.2668 266.346 27.2337 258.93 34.7891C241.441 52.698 226.33 72.7056 213.598 94.8119C201.985 115.239 196.179 130 196.179 139.094C196.179 143.152 197.508 145.181 200.167 145.181C201.846 145.181 206.043 143.712 212.759 140.773C218.635 138.115 222.483 136.576 224.302 136.156C225.001 136.436 225.351 136.786 225.351 137.206C225.351 139.304 221.643 142.242 214.228 146.02C206.952 149.798 200.866 151.687 195.969 151.687ZM246.704 140.354C242.226 140.354 238.169 138.955 234.531 136.156C230.893 133.218 229.075 129.37 229.075 124.613C229.075 114.68 235.161 103.347 247.333 90.6145C259.785 77.7424 270.909 71.3064 280.703 71.3064C283.921 71.3064 286.509 72.2159 288.468 74.0347C290.566 75.7137 291.616 77.8124 291.616 80.3308C291.616 88.166 285.39 95.8612 272.937 103.417C261.884 110.132 252.58 113.49 245.025 113.49C243.905 113.49 242.926 113.35 242.086 113.071C239.988 116.848 238.938 120.836 238.938 125.033C238.938 132.309 242.366 135.946 249.222 135.946C256.218 135.946 265.242 131.259 276.295 121.885C284.83 115.029 292.105 107.754 298.122 100.059C299.381 98.3797 300.5 97.5402 301.48 97.5402C302.319 97.5402 302.739 97.9599 302.739 98.7994C302.739 99.6389 302.179 100.828 301.06 102.367C297.142 107.544 292.945 112.301 288.468 116.638C283.99 120.976 279.163 124.963 273.987 128.601C263.213 136.436 254.119 140.354 246.704 140.354ZM247.963 108.873C253.28 108.873 260.205 106.215 268.74 100.898C271.538 98.9393 274.267 96.7707 276.925 94.3921C279.723 91.8737 281.962 89.3552 283.641 86.8368C285.46 84.3184 286.369 82.0798 286.369 80.121C286.369 78.3021 284.9 77.3927 281.962 77.3927C277.764 77.3927 271.888 80.5407 264.333 86.8368C260.695 89.9149 257.197 93.2728 253.839 96.9106C250.481 100.548 247.613 104.396 245.235 108.453C246.074 108.733 246.983 108.873 247.963 108.873ZM343.419 138.045C339.642 138.045 336.983 136.996 335.444 134.897C333.905 132.658 333.136 129.93 333.136 126.712C333.136 118.597 335.934 109.923 341.53 100.688L354.962 78.8618C345.448 85.8574 336.004 94.602 326.63 105.095C324.111 107.894 321.243 111.182 318.025 114.959C314.947 118.737 311.519 123.074 307.741 127.971C302.704 134.547 299.696 137.835 298.717 137.835C296.758 137.835 295.149 136.996 293.89 135.317C292.631 133.498 292.001 131.889 292.001 130.49C292.001 129.37 292.351 127.342 293.05 124.404C293.75 121.325 294.589 118.667 295.569 116.428C296.548 114.05 297.528 111.741 298.507 109.503C299.626 107.124 300.676 104.816 301.655 102.577L289.063 115.799C288.783 116.079 287.944 116.918 286.544 118.317C285.145 119.716 284.026 120.416 283.187 120.416C282.487 120.416 282.137 119.926 282.137 118.947C282.137 118.667 282.277 118.317 282.557 117.898C282.697 117.338 283.117 116.708 283.816 116.009C285.915 113.91 288.084 111.671 290.322 109.293C292.561 106.914 294.869 104.186 297.248 101.108C298.507 99.5689 300.396 97.2604 302.914 94.1823C305.433 90.9643 308.161 87.5364 311.099 83.8986C314.177 80.2609 317.046 76.903 319.704 73.8249C320.403 72.8455 321.173 72.2159 322.012 71.936C322.852 71.5163 323.412 71.3064 323.691 71.3064C327.469 71.3064 329.358 72.7755 329.358 75.7137C329.358 76.5532 329.148 77.3927 328.728 78.2321C316.136 95.5814 308.581 108.803 306.062 117.898C322.292 101.668 335.304 89.4952 345.098 81.3802C355.032 73.1253 362.098 68.9979 366.295 68.9979C368.534 68.9979 370.213 69.3476 371.332 70.0472C372.591 70.7468 373.221 72.076 373.221 74.0347C373.221 74.7343 373.151 75.294 373.011 75.7137C372.591 76.6931 369.723 80.6107 364.406 87.4664C361.188 91.384 358.32 94.9518 355.802 98.1698C353.423 101.388 351.464 104.186 349.925 106.565C347.407 110.482 345.518 114.19 344.259 117.688C342.999 121.046 342.37 123.914 342.37 126.292C342.37 127.272 342.51 128.461 342.79 129.86C343.069 131.259 343.909 131.959 345.308 131.959C348.526 131.959 353.563 129.161 360.419 123.564C363.637 120.766 366.645 117.968 369.443 115.169C372.241 112.231 374.9 109.363 377.418 106.565C377.978 106.005 378.887 104.956 380.146 103.417C381.406 101.738 382.175 100.898 382.455 100.898C383.015 100.898 383.294 101.458 383.294 102.577C383.294 103.137 382.945 104.116 382.245 105.515C381.685 106.774 381.056 107.754 380.356 108.453C378.817 110.272 376.509 112.791 373.431 116.009C370.492 119.227 367.135 122.515 363.357 125.873C359.719 129.231 356.151 132.099 352.653 134.477C349.156 136.856 346.078 138.045 343.419 138.045ZM384.411 139.934C378.115 139.934 374.967 135.946 374.967 127.971C374.967 124.893 375.876 121.255 377.695 117.058C379.654 112.721 382.382 108.174 385.88 103.417C385.88 103.417 384.621 104.606 382.102 106.984C379.584 109.363 376.716 112.371 373.498 116.009C372.938 116.568 372.239 116.848 371.399 116.848C370.839 116.848 370.56 116.498 370.56 115.799C370.56 115.099 371.189 113.91 372.448 112.231L401.411 78.2321C405.048 74.0347 409.036 71.936 413.373 71.936C416.591 71.936 418.2 73.1953 418.2 75.7137C418.2 76.6931 417.78 77.6025 416.941 78.442C414.283 80.9605 410.995 84.5282 407.077 89.1454C403.299 93.7625 399.592 98.7294 395.954 104.046C392.316 109.363 389.238 114.47 386.72 119.367C384.341 124.124 383.152 127.971 383.152 130.909C383.152 133.428 383.991 134.687 385.67 134.687C386.65 134.687 388.189 134.337 390.287 133.638C392.386 132.798 395.184 131.189 398.682 128.811C402.18 126.292 406.377 122.445 411.274 117.268C412.114 116.428 414.353 113.91 417.99 109.713C421.628 105.515 426.525 99.499 432.681 91.6638C443.594 78.0922 450.73 71.3064 454.088 71.3064C458.705 71.3064 461.223 73.1953 461.643 76.9729C461.923 78.2321 458.985 82.3596 452.829 89.3552C444.854 99.0093 439.397 105.935 436.459 110.132C431.002 118.107 428.274 124.334 428.274 128.811C428.274 131.889 429.323 133.428 431.422 133.428C433.521 133.428 436.179 132.449 439.397 130.49C442.755 128.391 446.253 125.803 449.89 122.725C453.528 119.507 457.026 116.219 460.384 112.861C463.882 109.363 466.89 106.145 469.408 103.207C470.248 102.227 471.087 101.738 471.927 101.738C472.766 101.738 473.186 102.157 473.186 102.997C473.186 103.277 473.116 103.696 472.976 104.256C472.836 104.816 472.417 105.445 471.717 106.145C469.478 108.663 466.61 111.811 463.112 115.589C459.614 119.227 455.837 122.864 451.779 126.502C447.722 130.14 443.804 133.148 440.027 135.527C436.249 137.905 433.031 139.094 430.373 139.094C427.155 139.094 424.356 138.255 421.978 136.576C419.599 134.757 418.41 132.309 418.41 129.231C418.41 126.152 418.9 123.074 419.879 119.996C420.858 116.778 421.628 114.05 422.188 111.811C415.612 119.507 409.805 125.383 404.768 129.44C399.871 133.498 395.744 136.226 392.386 137.625C389.028 139.164 386.37 139.934 384.411 139.934Z"/>
</mask>
<path d="M190.932 149.798L191.764 149.243L191.759 149.236L191.755 149.229L190.932 149.798ZM206.463 84.7381L205.599 84.2337L205.594 84.242L206.463 84.7381ZM244.659 27.6535L245.471 28.2374L244.022 26.8828L244.659 27.6535ZM220.944 48.4306L221.62 49.1673L220.944 48.4306ZM193.451 74.4545L192.754 73.7372L192.752 73.7396L193.451 74.4545ZM162.18 107.404L161.419 106.755L161.418 106.756L162.18 107.404ZM144.971 130.7L144.101 130.206L144.096 130.216L144.971 130.7ZM128.811 136.366L129.611 136.966L129.635 136.933L129.657 136.899L128.811 136.366ZM138.045 121.465L138.897 121.988L138.903 121.98L138.045 121.465ZM151.477 99.0093L152.335 99.5217L152.34 99.5146L152.344 99.5074L151.477 99.0093ZM184.007 36.2582L184.927 36.6481L184.931 36.6407L184.934 36.6333L184.007 36.2582ZM175.402 25.7646L176.044 26.5312L176.047 26.5289L175.402 25.7646ZM123.144 80.121L123.91 80.7644L123.913 80.7602L123.144 80.121ZM101.738 106.984L100.936 106.386L100.934 106.389L101.738 106.984ZM86.4171 129.021L87.2561 129.565L87.26 129.559L86.4171 129.021ZM82.2197 141.823L82.7342 140.965L82.7012 140.945L82.6669 140.928L82.2197 141.823ZM83.269 142.452H84.269V141.886L83.7835 141.595L83.269 142.452ZM79.4914 145.6L79.9386 146.495L80.0271 146.451L80.1053 146.39L79.4914 145.6ZM64.5906 143.292L65.5442 143.593L65.5455 143.589L64.5906 143.292ZM84.1085 109.083L83.279 108.525L83.2775 108.527L84.1085 109.083ZM112.231 65.2202L111.356 64.7358L111.356 64.7359L112.231 65.2202ZM120.836 9.81454L120.207 10.5925V10.5925L120.836 9.81454ZM53.4675 26.6041L52.839 25.8263L52.8358 25.8289L53.4675 26.6041ZM32.2706 47.5911L33.0309 48.2408L33.0366 48.234L32.2706 47.5911ZM16.3205 71.7262L15.4202 71.291L16.3205 71.7262ZM68.1584 100.898L68.9549 101.503L68.9611 101.495L68.9671 101.486L68.1584 100.898ZM71.0966 83.0592L70.3895 83.7663L70.4765 83.8533L70.5821 83.9166L71.0966 83.0592ZM73.8249 99.8487L74.6918 100.347L74.6964 100.339L73.8249 99.8487ZM59.3438 114.12L58.8239 113.266L58.8165 113.27L59.3438 114.12ZM9.60468 112.651L10.3284 111.961L9.60468 112.651ZM44.2332 21.1475L43.6136 20.3626L43.6081 20.367L44.2332 21.1475ZM63.1215 10.4442L63.496 11.3714L63.5049 11.3677L63.1215 10.4442ZM85.9973 3.51844L86.1901 4.49968L86.1985 4.49803L86.2069 4.49624L85.9973 3.51844ZM129.231 5.82701L128.681 6.66272L128.695 6.67173L128.709 6.68029L129.231 5.82701ZM124.823 61.8623L125.723 62.2998L125.725 62.2943L124.823 61.8623ZM107.824 90.1947L106.983 89.654L108.61 90.8126L107.824 90.1947ZM123.984 69.6275L124.77 70.2454L124.779 70.2341L123.984 69.6275ZM140.354 50.7392L139.626 50.0534L140.354 50.7392ZM164.699 25.9745L164.004 25.2551L163.997 25.2621L164.699 25.9745ZM178.55 15.9008L178.074 15.0211L178.55 15.9008ZM193.661 38.5667L192.757 38.1386L193.661 38.5667ZM174.772 75.7137L175.649 76.1946L175.654 76.1852L174.772 75.7137ZM169.945 86.8368L168.981 86.5737L169.945 86.8368ZM168.266 92.0836L167.434 91.5289L169.047 92.7083L168.266 92.0836ZM172.254 87.2565L171.489 86.6124L171.486 86.6164L172.254 87.2565ZM181.488 76.5532L180.743 75.8863L180.736 75.8947L181.488 76.5532ZM198.488 59.134L199.179 59.8563L199.187 59.8486L198.488 59.134ZM221.154 38.5667L220.517 37.7953L220.511 37.8005L220.505 37.8057L221.154 38.5667ZM254.733 10.8639L255.369 11.6353L255.377 11.6288L254.733 10.8639ZM266.066 11.0738L265.123 11.4066L265.135 11.4411L265.15 11.4746L266.066 11.0738ZM269.004 19.8883L268.038 20.1483L268.041 20.1594L268.045 20.1705L269.004 19.8883ZM258.93 34.7891L258.216 34.0886L258.215 34.0904L258.93 34.7891ZM213.598 94.8119L212.732 94.3128L212.729 94.3176L213.598 94.8119ZM212.759 140.773L213.16 141.69L213.171 141.684L212.759 140.773ZM224.302 136.156L224.673 135.228L224.382 135.111L224.077 135.182L224.302 136.156ZM214.228 146.02L213.774 145.129L213.767 145.133L214.228 146.02ZM195.969 150.687C193.56 150.687 192.321 150.078 191.764 149.243L190.1 150.352C191.222 152.036 193.341 152.687 195.969 152.687V150.687ZM191.755 149.229C189.371 145.785 188.155 141.585 188.155 136.576H186.155C186.155 141.921 187.457 146.535 190.11 150.367L191.755 149.229ZM188.155 136.576C188.155 124.827 194.467 107.746 207.331 85.2343L205.594 84.242C192.714 106.782 186.155 124.26 186.155 136.576H188.155ZM207.326 85.2425C215.557 71.152 228.268 52.1537 245.471 28.2374L243.847 27.0695C226.631 51.0036 213.878 70.0617 205.599 84.2337L207.326 85.2425ZM244.022 26.8828C236.73 32.9122 228.812 39.8496 220.267 47.694L221.62 49.1673C230.145 41.3413 238.037 34.4273 245.296 28.4241L244.022 26.8828ZM220.267 47.694C211.725 55.5365 202.553 64.2177 192.754 73.7372L194.148 75.1718C203.936 65.6631 213.093 56.995 221.62 49.1673L220.267 47.694ZM192.752 73.7396C180.006 86.2049 169.56 97.2108 161.419 106.755L162.941 108.053C171.03 98.5691 181.431 87.6087 194.15 75.1694L192.752 73.7396ZM161.418 106.756C153.428 116.149 147.645 123.969 144.101 130.206L145.84 131.194C149.292 125.118 154.982 117.408 162.942 108.052L161.418 106.756ZM144.096 130.216C140.546 136.633 136.41 139.564 131.749 139.564V141.564C137.441 141.564 142.12 137.918 145.846 131.184L144.096 130.216ZM131.749 139.564C130.647 139.564 129.999 139.364 129.65 139.117C129.364 138.915 129.181 138.617 129.181 138.045H127.181C127.181 139.152 127.593 140.113 128.496 140.751C129.336 141.344 130.473 141.564 131.749 141.564V139.564ZM129.181 138.045C129.181 137.751 129.288 137.397 129.611 136.966L128.011 135.766C127.494 136.455 127.181 137.22 127.181 138.045H129.181ZM129.657 136.899C132.038 133.117 135.119 128.146 138.897 121.988L137.193 120.942C133.416 127.097 130.34 132.06 127.965 135.833L129.657 136.899ZM138.903 121.98C142.681 115.683 147.158 108.197 152.335 99.5217L150.618 98.4968C145.442 107.171 140.965 114.656 137.188 120.951L138.903 121.98ZM152.344 99.5074C167.461 73.1916 178.328 52.2338 184.927 36.6481L183.086 35.8682C176.533 51.3433 165.713 72.2195 150.61 98.5111L152.344 99.5074ZM184.934 36.6333C187.312 30.7582 188.574 26.3289 188.574 23.4561H186.574C186.574 25.9 185.459 30.0054 183.08 35.883L184.934 36.6333ZM188.574 23.4561C188.574 22.2532 188.373 21.174 187.821 20.3711C187.223 19.5007 186.314 19.0982 185.266 19.0982V21.0982C185.757 21.0982 186.002 21.2553 186.173 21.5042C186.391 21.8206 186.574 22.4203 186.574 23.4561H188.574ZM185.266 19.0982C183.951 19.0982 182.419 19.6763 180.728 20.6477C179.012 21.6334 177.02 23.0913 174.757 25.0004L176.047 26.5289C178.261 24.6603 180.152 23.285 181.724 22.3819C183.321 21.4645 184.482 21.0982 185.266 21.0982V19.0982ZM174.76 24.9981C159.167 38.0624 141.705 56.23 122.375 79.4817L123.913 80.7602C143.2 57.5607 160.576 39.4908 176.044 26.5312L174.76 24.9981ZM122.379 79.4775C114.254 89.1432 107.106 98.1131 100.936 106.386L102.539 107.582C108.682 99.3458 115.805 90.4067 123.91 80.7644L122.379 79.4775ZM100.934 106.389C94.9079 114.517 89.7871 121.882 85.5742 128.483L87.26 129.559C91.4418 123.007 96.5347 115.681 102.541 107.58L100.934 106.389ZM85.5781 128.476C83.8843 131.088 82.5962 133.355 81.7285 135.272C80.8706 137.166 80.3802 138.809 80.3802 140.144H82.3802C82.3802 139.24 82.7293 137.91 83.5504 136.097C84.3615 134.305 85.592 132.13 87.256 129.565L85.5781 128.476ZM80.3802 140.144C80.3802 141.211 80.7573 142.21 81.7725 142.717L82.6669 140.928C82.5628 140.876 82.3802 140.755 82.3802 140.144H80.3802ZM81.7052 142.68C81.7225 142.691 81.6961 142.675 81.7134 142.685C81.7147 142.686 81.7161 142.687 81.7174 142.688C81.7188 142.688 81.7202 142.689 81.7215 142.69C81.7229 142.691 81.7242 142.692 81.7256 142.692C81.7269 142.693 81.7283 142.694 81.7296 142.695C81.731 142.696 81.7323 142.697 81.7337 142.697C81.735 142.698 81.7364 142.699 81.7377 142.7C81.7391 142.701 81.7404 142.701 81.7418 142.702C81.7431 142.703 81.7444 142.704 81.7458 142.705C81.7606 142.713 81.739 142.701 81.7538 142.709C81.7621 142.714 81.7614 142.714 81.7697 142.719C81.773 142.721 81.7823 142.727 81.7856 142.728C81.7872 142.729 81.7918 142.732 81.7934 142.733C81.7972 142.735 81.7975 142.736 81.8013 142.738C81.8286 142.754 81.8051 142.74 81.8323 142.756C81.857 142.771 81.8686 142.778 81.8927 142.793C81.9298 142.815 81.8853 142.788 81.9222 142.81C81.9302 142.815 81.9288 142.814 81.9367 142.819C81.9449 142.824 81.943 142.823 81.9511 142.828C81.9553 142.83 81.9613 142.834 81.9654 142.836C81.9657 142.837 81.9722 142.84 81.9725 142.841C81.9866 142.849 81.9655 142.836 81.9796 142.845C82.0028 142.859 81.9844 142.848 82.0075 142.862C82.0265 142.873 82.0161 142.867 82.0349 142.878C82.0427 142.883 82.0339 142.877 82.0417 142.882C82.0498 142.887 82.0403 142.881 82.0484 142.886C82.0652 142.896 82.0383 142.88 82.0551 142.89C82.0562 142.891 82.0574 142.892 82.0585 142.892C82.0596 142.893 82.0607 142.894 82.0618 142.894C82.0728 142.901 82.0641 142.896 82.0751 142.902C82.0902 142.911 82.0731 142.901 82.0882 142.91C82.0912 142.912 82.1112 142.924 82.1141 142.926C82.1642 142.956 82.0894 142.911 82.1394 142.941C82.1473 142.945 82.1378 142.94 82.1457 142.945C82.1467 142.945 82.1478 142.946 82.1488 142.946C82.1498 142.947 82.1509 142.948 82.1519 142.948C82.1537 142.949 82.1625 142.955 82.1643 142.956C82.2234 142.991 82.1297 142.935 82.1886 142.97C82.1985 142.976 82.2027 142.979 82.2124 142.985C82.2324 142.997 82.216 142.987 82.2357 142.999C82.303 143.039 82.1915 142.972 82.2586 143.012C82.2926 143.033 82.247 143.005 82.2808 143.026C82.3027 143.039 82.27 143.019 82.2918 143.032C82.3112 143.044 82.2832 143.027 82.3026 143.039C82.31 143.043 82.306 143.041 82.3133 143.045C82.3142 143.046 82.3178 143.048 82.3186 143.048C82.3254 143.052 82.3171 143.047 82.3239 143.051C82.3248 143.052 82.3256 143.052 82.3265 143.053C82.3274 143.054 82.3282 143.054 82.3291 143.055C82.33 143.055 82.3309 143.056 82.3317 143.056C82.3326 143.057 82.3335 143.057 82.3343 143.058C82.3439 143.063 82.3351 143.058 82.3446 143.064C82.3665 143.077 82.333 143.057 82.3548 143.07C82.3578 143.072 82.3568 143.071 82.3599 143.073C82.3607 143.074 82.3615 143.074 82.3624 143.075C82.3632 143.075 82.364 143.076 82.3649 143.076C82.3861 143.089 82.3635 143.075 82.3846 143.088C82.3913 143.092 82.3973 143.095 82.4038 143.099C82.4187 143.108 82.3984 143.096 82.4132 143.105C82.4134 143.105 82.4224 143.111 82.4225 143.111C82.4233 143.111 82.424 143.112 82.4248 143.112C82.4256 143.112 82.4263 143.113 82.4271 143.113C82.4271 143.113 82.4317 143.116 82.4317 143.116C82.4434 143.123 82.429 143.115 82.4407 143.122C82.4444 143.124 82.4548 143.13 82.4584 143.132C82.4674 143.138 82.4667 143.137 82.4755 143.142C82.4772 143.143 82.4823 143.146 82.4839 143.147C82.485 143.148 82.487 143.149 82.4881 143.15C82.4905 143.151 82.4898 143.151 82.4922 143.152C82.5047 143.16 82.4879 143.15 82.5003 143.157C82.5023 143.159 82.5064 143.161 82.5083 143.162C82.5092 143.163 82.5233 143.171 82.524 143.171C82.5951 143.214 82.4832 143.147 82.5537 143.189C82.5691 143.199 82.5666 143.197 82.5813 143.206C82.5952 143.214 82.5807 143.206 82.5944 143.214C82.6076 143.222 82.5939 143.213 82.607 143.221C82.6451 143.244 82.5931 143.213 82.6305 143.235C82.6371 143.239 82.6351 143.238 82.6416 143.242C82.6547 143.25 82.6391 143.241 82.6521 143.248C82.6808 143.266 82.6335 143.237 82.662 143.254C82.6691 143.259 82.6646 143.256 82.6715 143.26C82.6729 143.261 82.6725 143.261 82.6738 143.261C82.6746 143.262 82.6753 143.262 82.6761 143.263C82.6809 143.266 82.6757 143.263 82.6805 143.265C82.6807 143.266 82.6846 143.268 82.6848 143.268C82.6866 143.269 82.6872 143.269 82.6889 143.27C82.7543 143.31 82.6396 143.241 82.7043 143.28C82.705 143.28 82.7055 143.28 82.7061 143.281C82.7083 143.282 82.7056 143.28 82.7078 143.282C82.7089 143.282 82.7102 143.283 82.7112 143.284C82.7193 143.289 82.7098 143.283 82.7176 143.288C82.7292 143.295 82.7121 143.284 82.7235 143.291C82.7281 143.294 82.7245 143.292 82.7289 143.294C82.7367 143.299 82.7261 143.293 82.7338 143.297C82.7366 143.299 82.7321 143.296 82.7349 143.298C82.7351 143.298 82.7353 143.298 82.7355 143.298C82.7357 143.299 82.7358 143.299 82.736 143.299C82.737 143.299 82.7361 143.299 82.7371 143.299C82.7377 143.3 82.7375 143.3 82.7381 143.3C82.7386 143.3 82.7387 143.3 82.7391 143.301C82.7398 143.301 82.7395 143.301 82.7401 143.301C82.7408 143.302 82.7413 143.302 82.742 143.302C82.7466 143.305 82.7409 143.302 82.7453 143.304C82.7525 143.309 82.744 143.303 82.7504 143.307C82.7513 143.308 82.7501 143.307 82.7509 143.308C82.752 143.308 82.7504 143.307 82.7514 143.308C82.7515 143.308 82.7515 143.308 82.7516 143.308C82.7517 143.308 82.7518 143.308 82.7518 143.308C82.7519 143.308 82.752 143.308 82.752 143.308C82.7521 143.308 82.7522 143.308 82.7522 143.308C82.7531 143.309 82.7528 143.309 82.7535 143.309C82.7544 143.31 82.7535 143.309 82.7543 143.31C82.7544 143.31 82.7544 143.31 82.7545 143.31C82.7545 143.31 82.7545 143.31 82.7545 143.31C82.7545 143.31 82.7545 143.31 82.7545 143.31C82.7545 143.31 82.7545 143.31 83.269 142.452C83.7835 141.595 83.7835 141.595 83.7835 141.595C83.7835 141.595 83.7835 141.595 83.7835 141.595C83.7835 141.595 83.7835 141.595 83.7835 141.595C83.7834 141.595 83.7834 141.595 83.7834 141.595C83.7834 141.595 83.7833 141.595 83.7833 141.595C83.7833 141.595 83.7833 141.595 83.7833 141.595C83.7832 141.595 83.7832 141.595 83.7831 141.595C83.7827 141.594 83.7833 141.595 83.7829 141.595C83.7829 141.594 83.7828 141.594 83.7827 141.594C83.7823 141.594 83.7829 141.594 83.7825 141.594C83.7598 141.581 83.8028 141.606 83.7794 141.592C83.7782 141.592 83.7801 141.593 83.7789 141.592C83.7788 141.592 83.7787 141.592 83.7786 141.592C83.7785 141.592 83.7784 141.592 83.7783 141.592C83.7766 141.591 83.7789 141.592 83.7771 141.591C83.7747 141.59 83.7769 141.591 83.7743 141.589C83.7553 141.578 83.7868 141.597 83.7671 141.585C83.766 141.584 83.7662 141.584 83.765 141.584C83.764 141.583 83.7638 141.583 83.7628 141.582C83.7621 141.582 83.7588 141.58 83.7579 141.579C83.7287 141.562 83.7765 141.591 83.7466 141.573C83.7429 141.57 83.7472 141.573 83.7435 141.571C83.7415 141.57 83.7423 141.57 83.7402 141.569C83.7362 141.566 83.7375 141.567 83.7333 141.565C83.7286 141.562 83.7307 141.563 83.7259 141.56C83.7252 141.56 83.7227 141.558 83.722 141.558C83.7207 141.557 83.7192 141.556 83.7179 141.555C83.6912 141.539 83.7364 141.567 83.7095 141.55C83.7058 141.548 83.7044 141.547 83.7005 141.545C83.6959 141.542 83.6958 141.542 83.691 141.539C83.6882 141.538 83.6841 141.535 83.681 141.533C83.6688 141.526 83.683 141.535 83.6705 141.527C83.6651 141.524 83.6652 141.524 83.6595 141.52C83.6561 141.518 83.6573 141.519 83.6538 141.517C83.653 141.517 83.6518 141.516 83.6509 141.515C83.6466 141.513 83.6524 141.516 83.648 141.514C83.6427 141.51 83.6474 141.513 83.642 141.51C83.6415 141.51 83.641 141.509 83.6405 141.509C83.64 141.509 83.6395 141.508 83.639 141.508C83.6382 141.508 83.6368 141.507 83.636 141.506C83.6274 141.501 83.6383 141.508 83.6297 141.503C83.6278 141.501 83.6286 141.502 83.6266 141.501C83.6261 141.5 83.6255 141.5 83.625 141.5C83.6245 141.499 83.6239 141.499 83.6234 141.499C83.6041 141.487 83.6298 141.503 83.6103 141.491C83.5999 141.485 83.6073 141.489 83.5968 141.483C83.587 141.477 83.5995 141.484 83.5898 141.479C83.5845 141.475 83.588 141.478 83.5827 141.474C83.5244 141.439 83.6119 141.492 83.553 141.457C83.5498 141.455 83.5406 141.449 83.5373 141.447C83.5354 141.446 83.5233 141.439 83.5212 141.437C83.4927 141.42 83.5332 141.445 83.5045 141.427C83.4976 141.423 83.503 141.427 83.496 141.422C83.4883 141.418 83.4994 141.424 83.4917 141.42C83.4865 141.417 83.4926 141.42 83.4874 141.417C83.4811 141.413 83.4761 141.41 83.4697 141.407C83.4655 141.404 83.4649 141.404 83.4607 141.401C83.455 141.398 83.4572 141.399 83.4515 141.396C83.4411 141.389 83.4527 141.396 83.4422 141.39C83.4408 141.389 83.4342 141.385 83.4328 141.384C83.4307 141.383 83.4159 141.374 83.4136 141.373C83.4063 141.368 83.4014 141.366 83.3939 141.361C83.3862 141.356 83.3814 141.354 83.3736 141.349C83.3649 141.344 83.3772 141.351 83.3685 141.346C83.3676 141.345 83.3668 141.345 83.3659 141.344C83.365 141.344 83.3642 141.343 83.3633 141.343C83.3496 141.334 83.3667 141.345 83.3529 141.336C83.3336 141.325 83.351 141.335 83.3316 141.324C83.3176 141.315 83.324 141.319 83.3098 141.311C83.296 141.302 83.3016 141.306 83.2875 141.297C83.2562 141.278 83.2734 141.289 83.2414 141.27C83.2369 141.267 83.24 141.269 83.2355 141.266C83.2327 141.264 83.2325 141.264 83.2296 141.262C83.2226 141.258 83.2246 141.26 83.2176 141.255C83.2166 141.255 83.2156 141.254 83.2146 141.253C83.2136 141.253 83.2126 141.252 83.2116 141.252C83.2106 141.251 83.2095 141.25 83.2085 141.25C83.2075 141.249 83.2065 141.249 83.2055 141.248C83.199 141.244 83.1998 141.245 83.1933 141.241C83.1612 141.221 83.2006 141.245 83.1684 141.226C83.1541 141.217 83.1701 141.227 83.1558 141.218C83.1541 141.217 83.1448 141.212 83.1431 141.211C83.1147 141.194 83.1457 141.212 83.1172 141.195C83.1161 141.194 83.115 141.194 83.1139 141.193C83.1128 141.192 83.1117 141.192 83.1106 141.191C83.1095 141.19 83.1084 141.19 83.1073 141.189C83.1062 141.188 83.1051 141.188 83.104 141.187C83.0939 141.181 83.1076 141.189 83.0974 141.183C83.0954 141.182 83.0928 141.18 83.0908 141.179C83.0226 141.138 83.1053 141.188 83.0365 141.147C83.0188 141.136 83.0264 141.141 83.0086 141.13C82.9566 141.099 83.0322 141.144 82.9801 141.113C82.9448 141.092 82.9867 141.117 82.9512 141.095C82.9422 141.09 82.9309 141.083 82.9217 141.078C82.9201 141.077 82.8935 141.061 82.8917 141.06C82.8816 141.054 82.8943 141.061 82.8842 141.055C82.8638 141.043 82.8969 141.063 82.8765 141.051C82.8753 141.05 82.874 141.049 82.8727 141.048C82.8715 141.048 82.8702 141.047 82.8689 141.046C82.8661 141.044 82.8641 141.043 82.8612 141.041C82.8442 141.031 82.8629 141.042 82.8458 141.032C82.8249 141.02 82.8512 141.035 82.8302 141.023C82.8057 141.008 82.8234 141.019 82.7987 141.004C82.7611 140.981 82.8046 141.007 82.7667 140.985C82.754 140.977 82.7633 140.983 82.7505 140.975C82.7176 140.955 82.7672 140.985 82.7342 140.965L81.7052 142.68ZM82.269 142.452C82.269 142.281 82.314 142.154 82.3369 142.097C82.3628 142.032 82.3902 141.985 82.4046 141.962C82.4205 141.936 82.4336 141.919 82.4399 141.91C82.4434 141.906 82.4462 141.902 82.4479 141.9C82.4496 141.898 82.4506 141.897 82.4507 141.897C82.4509 141.896 82.4488 141.899 82.4437 141.904C82.4388 141.91 82.4319 141.917 82.4227 141.926C82.404 141.945 82.3789 141.97 82.3463 142.001C82.2118 142.128 81.9947 142.318 81.6844 142.576C81.0681 143.09 80.1344 143.833 78.8774 144.811L80.1053 146.39C81.3668 145.409 82.3219 144.648 82.9648 144.113C83.2842 143.846 83.5392 143.625 83.7195 143.455C83.8072 143.372 83.8959 143.284 83.9693 143.198C84.0045 143.157 84.0558 143.094 84.1039 143.017C84.1235 142.985 84.269 142.764 84.269 142.452H82.269ZM79.0442 144.706C76.9601 145.748 74.5976 146.279 71.9361 146.279V148.279C74.871 148.279 77.5454 147.691 79.9386 146.495L79.0442 144.706ZM71.9361 146.279C69.0932 146.279 67.2647 145.941 66.2744 145.404C65.8052 145.149 65.5961 144.888 65.5048 144.662C65.4135 144.436 65.3832 144.103 65.5442 143.593L63.637 142.991C63.3783 143.81 63.3392 144.64 63.6501 145.411C63.9611 146.181 64.5653 146.751 65.3203 147.161C66.7785 147.953 69.0425 148.279 71.9361 148.279V146.279ZM65.5455 143.589C67.4538 137.455 73.8718 126.171 84.9395 109.639L83.2775 108.527C72.2389 125.015 65.6449 136.537 63.6357 142.995L65.5455 143.589ZM84.938 109.641C99.3458 88.2397 108.744 73.5837 113.106 65.7045L111.356 64.7359C107.043 72.527 97.6934 87.1129 83.279 108.525L84.938 109.641ZM113.106 65.7046C122.5 48.7401 127.292 35.0527 127.292 24.7153H125.292C125.292 34.5254 120.711 47.8413 111.356 64.7358L113.106 65.7046ZM127.292 24.7153C127.292 17.571 125.435 12.2437 121.464 9.0366L120.207 10.5925C123.512 13.2618 125.292 17.8683 125.292 24.7153H127.292ZM121.464 9.0366C117.571 5.89184 111.774 4.40727 104.256 4.40727V6.40727C111.568 6.40727 116.825 7.86088 120.207 10.5925L121.464 9.0366ZM104.256 4.40727C87.585 4.40727 70.4402 11.6046 52.839 25.8263L54.096 27.382C71.4731 13.3412 88.1873 6.40727 104.256 6.40727V4.40727ZM52.8358 25.8289C45.2293 32.0268 38.1191 39.0672 31.5047 46.9483L33.0366 48.234C39.574 40.4447 46.595 33.4938 54.0992 27.3794L52.8358 25.8289ZM31.5104 46.9415C24.8835 54.6964 19.518 62.8127 15.4202 71.291L17.2209 72.1613C21.238 63.85 26.5059 55.8764 33.0309 48.2408L31.5104 46.9415ZM15.4202 71.291C11.3069 79.8013 9.23429 88.2042 9.23429 96.4908H11.2343C11.2343 88.5475 13.2192 80.4407 17.2209 72.1613L15.4202 71.291ZM9.23429 96.4908C9.23429 103.906 10.98 109.654 14.6483 113.546C18.3271 117.451 23.776 119.317 30.8015 119.317V117.317C24.1156 117.317 19.2809 115.546 16.1039 112.175C12.9164 108.792 11.2343 103.626 11.2343 96.4908H9.23429ZM30.8015 119.317C47.167 119.317 59.9298 113.393 68.9549 101.503L67.3619 100.293C58.7579 111.629 46.6161 117.317 30.8015 117.317V119.317ZM68.9671 101.486C72.4002 96.7657 74.1953 92.2255 74.1953 87.8862H72.1953C72.1953 91.6618 70.6324 95.7962 67.3497 100.31L68.9671 101.486ZM74.1953 87.8862C74.1953 85.332 73.4364 83.2969 71.6111 82.2017L70.5821 83.9166C71.555 84.5004 72.1953 85.6833 72.1953 87.8862H74.1953ZM71.8037 82.352C71.8283 82.3766 71.8477 82.4024 71.8622 82.4266C71.8766 82.4505 71.8842 82.4696 71.8878 82.4806C71.8945 82.5005 71.8867 82.4891 71.8867 82.4295H69.8867C69.8867 82.8635 69.9959 83.3727 70.3895 83.7663L71.8037 82.352ZM71.8867 82.4295C71.8867 82.4152 71.8889 82.4513 71.8598 82.5095C71.8287 82.5718 71.7849 82.6129 71.7562 82.632C71.7342 82.6466 71.743 82.634 71.8119 82.6187C71.8805 82.6035 71.9885 82.5901 72.1459 82.5901V80.5901C71.6467 80.5901 71.0973 80.6675 70.6468 80.9679C70.1247 81.3159 69.8867 81.8584 69.8867 82.4295H71.8867ZM72.1459 82.5901C73.728 82.5901 74.765 83.0934 75.444 83.9814C76.1619 84.9202 76.6025 86.4464 76.6025 88.7256H78.6025C78.6025 86.2479 78.1337 84.2063 77.0327 82.7665C75.8929 81.276 74.2016 80.5901 72.1459 80.5901V82.5901ZM76.6025 88.7256C76.6025 91.4074 75.4422 94.9339 72.9533 99.3585L74.6964 100.339C77.2445 95.8092 78.6025 91.9203 78.6025 88.7256H76.6025ZM72.958 99.3503C69.8369 104.778 65.1403 109.421 58.8239 113.266L59.8638 114.974C66.4194 110.984 71.3769 106.112 74.6918 100.347L72.958 99.3503ZM58.8165 113.27C50.8641 118.206 42.0931 120.675 32.4805 120.675V122.675C42.4558 122.675 51.5937 120.107 59.8712 114.97L58.8165 113.27ZM32.4805 120.675C23.1966 120.675 15.8482 117.75 10.3284 111.961L8.88094 113.341C14.834 119.584 22.7362 122.675 32.4805 122.675V120.675ZM10.3284 111.961C4.80042 106.163 2.00001 98.5214 2.00001 88.9355H9.05991e-06C9.05991e-06 98.9375 2.93605 107.106 8.88094 113.341L10.3284 111.961ZM2.00001 88.9355C2.00001 67.2877 16.1177 44.9485 44.8584 21.928L43.6081 20.367C14.7045 43.518 9.05991e-06 66.3707 9.05991e-06 88.9355H2.00001ZM44.8529 21.9324C50.0843 17.8023 56.295 14.2795 63.496 11.3714L62.747 9.51691C55.3971 12.4852 49.0155 16.0979 43.6136 20.3626L44.8529 21.9324ZM63.5049 11.3677C70.8592 8.31503 78.4206 6.02584 86.1901 4.49968L85.8046 2.53719C77.9038 4.08914 70.2147 6.4171 62.7381 9.52056L63.5049 11.3677ZM86.2069 4.49624C93.9875 2.82896 101.122 2 107.614 2V3.8147e-06C100.954 3.8147e-06 93.6775 0.849997 85.7878 2.54063L86.2069 4.49624ZM107.614 2C117.043 2 124.02 3.59967 128.681 6.66272L129.78 4.99131C124.647 1.61834 117.213 3.8147e-06 107.614 3.8147e-06V2ZM128.709 6.68029C133.353 9.51845 135.786 14.5814 135.786 22.1969H137.786C137.786 14.142 135.182 8.29176 129.752 4.97373L128.709 6.68029ZM135.786 22.1969C135.786 31.7608 131.879 44.8166 123.921 61.4303L125.725 62.2943C133.717 45.6086 137.786 32.2208 137.786 22.1969H135.786ZM123.924 61.4248C121.436 66.5401 115.801 75.9362 106.983 89.654L108.665 90.7355C117.476 77.0302 123.174 67.538 125.723 62.2998L123.924 61.4248ZM108.61 90.8126L124.77 70.2453L123.197 69.0097L107.037 89.5769L108.61 90.8126ZM124.779 70.2341C128.808 64.9548 134.239 58.6863 141.081 51.425L139.626 50.0534C132.757 57.3431 127.275 63.6667 123.189 69.0208L124.779 70.2341ZM141.081 51.425C147.927 44.1608 156.032 35.915 165.4 26.6869L163.997 25.2621C154.616 34.5026 146.492 42.7666 139.626 50.0534L141.081 51.425ZM165.393 26.6939C169.382 22.8422 173.925 19.5374 179.025 16.7805L178.074 15.0211C172.821 17.8607 168.13 21.2717 164.004 25.2551L165.393 26.6939ZM179.025 16.7805C184.137 14.0176 188.372 12.7034 191.772 12.7034V10.7034C187.896 10.7034 183.317 12.1874 178.074 15.0211L179.025 16.7805ZM191.772 12.7034C194.122 12.7034 195.704 13.3209 196.712 14.3849C197.73 15.459 198.327 17.1611 198.327 19.6784H200.327C200.327 16.879 199.665 14.5936 198.164 13.0094C196.654 11.415 194.459 10.7034 191.772 10.7034V12.7034ZM198.327 19.6784C198.327 24.0665 196.519 30.1971 192.757 38.1386L194.564 38.9948C198.358 30.9862 200.327 24.5246 200.327 19.6784H198.327ZM192.757 38.1386C187.729 48.7533 181.441 61.1205 173.89 75.2422L175.654 76.1852C183.215 62.0444 189.519 49.647 194.564 38.9948L192.757 38.1386ZM173.896 75.2329C171.497 79.6058 169.849 83.3904 168.981 86.5737L170.91 87.0999C171.721 84.1271 173.29 80.4962 175.649 76.1945L173.896 75.2329ZM168.981 86.5737C168.562 88.1073 168.217 89.2981 167.944 90.1523C167.807 90.58 167.691 90.9134 167.596 91.1585C167.549 91.281 167.509 91.3742 167.478 91.4421C167.444 91.5153 167.429 91.5369 167.434 91.5289L169.098 92.6383C169.235 92.4338 169.355 92.1548 169.461 91.8805C169.576 91.5835 169.705 91.2085 169.848 90.7618C170.135 89.8672 170.489 88.6444 170.91 87.0999L168.981 86.5737ZM169.047 92.7083C169.599 92.0181 170.921 90.4176 173.022 87.8967L171.486 86.6164C169.389 89.1324 168.053 90.7498 167.485 91.4589L169.047 92.7083ZM173.019 87.9007C175.251 85.2494 178.325 81.687 182.241 77.2117L180.736 75.8947C176.816 80.3738 173.734 83.947 171.489 86.6124L173.019 87.9007ZM182.233 77.22C186.969 71.9268 192.617 66.1392 199.179 59.8563L197.796 58.4117C191.206 64.721 185.521 70.5461 180.743 75.8864L182.233 77.22ZM199.187 59.8486C205.744 53.4317 213.281 46.5914 221.802 39.3277L220.505 37.8057C211.956 45.093 204.384 51.9643 197.788 58.4193L199.187 59.8486ZM221.79 39.3381L255.369 11.6353L254.096 10.0925L220.517 37.7953L221.79 39.3381ZM255.377 11.6288C257.964 9.44983 260.117 8.50598 261.868 8.50598V6.50598C259.422 6.50598 256.818 7.80073 254.089 10.099L255.377 11.6288ZM261.868 8.50598C262.628 8.50598 263.233 8.72965 263.739 9.15986C264.263 9.6051 264.741 10.3243 265.123 11.4066L267.009 10.7409C266.551 9.44465 265.91 8.38 265.034 7.63598C264.141 6.87693 263.068 6.50598 261.868 6.50598V8.50598ZM265.15 11.4746C266.101 13.6501 267.066 16.5359 268.038 20.1483L269.97 19.6283C268.983 15.9653 267.989 12.9747 266.982 10.6729L265.15 11.4746ZM268.045 20.1705C268.134 20.4735 268.126 20.9921 267.828 21.8172C267.534 22.6282 266.997 23.6317 266.182 24.8373C264.553 27.2465 261.909 30.3268 258.216 34.0886L259.644 35.4895C263.367 31.6961 266.109 28.5152 267.839 25.9575C268.702 24.6796 269.337 23.5232 269.708 22.4978C270.074 21.4865 270.224 20.4923 269.963 19.6061L268.045 20.1705ZM258.215 34.0904C240.666 52.0604 225.505 72.1353 212.732 94.3128L214.465 95.311C227.156 73.2758 242.216 53.3356 259.646 35.4877L258.215 34.0904ZM212.729 94.3176C206.909 104.555 202.53 113.397 199.603 120.837C196.683 128.26 195.179 134.362 195.179 139.094H197.179C197.179 134.733 198.578 128.907 201.464 121.569C204.344 114.248 208.675 105.496 214.468 95.3061L212.729 94.3176ZM195.179 139.094C195.179 141.201 195.518 142.954 196.339 144.207C197.209 145.534 198.539 146.181 200.167 146.181V144.181C199.136 144.181 198.472 143.813 198.012 143.111C197.504 142.336 197.179 141.046 197.179 139.094H195.179ZM200.167 146.181C201.199 146.181 202.819 145.752 204.904 145.023C207.037 144.276 209.791 143.163 213.16 141.69L212.358 139.857C209.01 141.322 206.308 142.412 204.244 143.135C202.131 143.874 200.813 144.181 200.167 144.181V146.181ZM213.171 141.684C219.072 139.015 222.824 137.524 224.526 137.131L224.077 135.182C222.142 135.628 218.198 137.215 212.347 139.862L213.171 141.684ZM223.93 137.085C224.214 137.198 224.339 137.293 224.382 137.336C224.398 137.352 224.389 137.348 224.375 137.318C224.36 137.285 224.351 137.244 224.351 137.206H226.351C226.351 136.115 225.43 135.53 224.673 135.228L223.93 137.085ZM224.351 137.206C224.351 137.435 224.246 137.806 223.85 138.344C223.459 138.876 222.838 139.495 221.949 140.2C220.172 141.608 217.46 143.251 213.774 145.129L214.682 146.911C218.411 145.011 221.261 143.297 223.191 141.767C224.156 141.002 224.925 140.258 225.461 139.53C225.992 138.809 226.351 138.025 226.351 137.206H224.351ZM213.767 145.133C206.55 148.88 200.632 150.687 195.969 150.687V152.687C201.1 152.687 207.355 150.715 214.689 146.908L213.767 145.133ZM234.531 136.156L233.903 136.934L233.912 136.942L233.921 136.949L234.531 136.156ZM247.333 90.6145L246.614 89.9192L246.61 89.9234L247.333 90.6145ZM288.468 74.0347L287.787 74.7675L287.814 74.7926L287.843 74.8156L288.468 74.0347ZM272.937 103.417L272.419 102.562L272.418 102.562L272.937 103.417ZM242.086 113.071L242.403 112.122L241.615 111.859L241.212 112.585L242.086 113.071ZM276.295 121.885L275.669 121.105L275.659 121.114L275.648 121.122L276.295 121.885ZM298.122 100.059L298.91 100.675L298.916 100.667L298.922 100.659L298.122 100.059ZM301.06 102.367L301.857 102.971L301.863 102.963L301.869 102.955L301.06 102.367ZM288.468 116.638L289.164 117.357L288.468 116.638ZM273.987 128.601L273.412 127.783L273.405 127.787L273.399 127.792L273.987 128.601ZM268.74 100.898L269.269 101.747L269.291 101.733L269.313 101.717L268.74 100.898ZM276.925 94.3921L277.592 95.1374L277.594 95.1354L276.925 94.3921ZM283.641 86.8368L282.83 86.2513L282.819 86.2665L282.809 86.2821L283.641 86.8368ZM264.333 86.8368L263.692 86.0686L263.687 86.0734L264.333 86.8368ZM253.839 96.9106L254.574 97.5888L253.839 96.9106ZM245.235 108.453L244.372 107.948L243.748 109.012L244.918 109.402L245.235 108.453ZM246.704 139.354C242.453 139.354 238.609 138.031 235.141 135.364L233.921 136.949C237.729 139.878 242 141.354 246.704 141.354V139.354ZM235.159 135.378C231.761 132.634 230.075 129.074 230.075 124.613H228.075C228.075 129.667 230.025 133.802 233.903 136.934L235.159 135.378ZM230.075 124.613C230.075 115.074 235.936 103.983 248.056 91.3055L246.61 89.9234C234.386 102.71 228.075 114.285 228.075 124.613H230.075ZM248.052 91.3098C260.458 78.4855 271.332 72.3064 280.703 72.3064V70.3064C270.485 70.3064 259.113 76.9994 246.614 89.9192L248.052 91.3098ZM280.703 72.3064C283.723 72.3064 286.05 73.1542 287.787 74.7675L289.148 73.3019C286.968 71.2776 284.119 70.3064 280.703 70.3064V72.3064ZM287.843 74.8156C289.723 76.3195 290.616 78.1389 290.616 80.3308H292.616C292.616 77.4859 291.41 75.1079 289.092 73.2539L287.843 74.8156ZM290.616 80.3308C290.616 87.5994 284.823 95.0355 272.419 102.562L273.456 104.271C285.956 96.687 292.616 88.7326 292.616 80.3308H290.616ZM272.418 102.562C261.423 109.242 252.309 112.49 245.025 112.49V114.49C252.851 114.49 262.345 111.022 273.457 104.271L272.418 102.562ZM245.025 112.49C243.986 112.49 243.117 112.36 242.403 112.122L241.77 114.019C242.735 114.341 243.825 114.49 245.025 114.49V112.49ZM241.212 112.585C239.034 116.507 237.938 120.661 237.938 125.033H239.938C239.938 121.011 240.942 117.19 242.961 113.556L241.212 112.585ZM237.938 125.033C237.938 128.811 238.827 131.83 240.782 133.904C242.746 135.989 245.624 136.946 249.222 136.946V134.946C245.964 134.946 243.7 134.085 242.237 132.532C240.764 130.969 239.938 128.531 239.938 125.033H237.938ZM249.222 136.946C256.604 136.946 265.87 132.038 276.942 122.648L275.648 121.122C264.615 130.48 255.832 134.946 249.222 134.946V136.946ZM276.922 122.665C285.509 115.766 292.841 108.437 298.91 100.675L297.334 99.4427C291.37 107.071 284.151 114.292 275.669 121.105L276.922 122.665ZM298.922 100.659C299.52 99.8611 300.049 99.3119 300.506 98.9698C300.964 98.626 301.282 98.5402 301.48 98.5402V96.5402C300.698 96.5402 299.967 96.8741 299.306 97.3698C298.642 97.8671 297.983 98.5772 297.322 99.4586L298.922 100.659ZM301.48 98.5402C301.745 98.5402 301.761 98.6059 301.717 98.5621C301.673 98.5183 301.739 98.5338 301.739 98.7994H303.739C303.739 98.2255 303.595 97.6114 303.131 97.1479C302.668 96.6843 302.054 96.5402 301.48 96.5402V98.5402ZM301.739 98.7994C301.739 99.0121 301.663 99.3662 301.414 99.8952C301.17 100.414 300.789 101.04 300.251 101.779L301.869 102.955C302.45 102.155 302.908 101.418 303.224 100.747C303.535 100.086 303.739 99.4262 303.739 98.7994H301.739ZM300.263 101.764C296.375 106.901 292.211 111.62 287.772 115.92L289.164 117.357C293.679 112.982 297.91 108.187 301.857 102.971L300.263 101.764ZM287.772 115.92C283.333 120.22 278.546 124.175 273.412 127.783L274.562 129.419C279.781 125.752 284.648 121.731 289.164 117.357L287.772 115.92ZM273.399 127.792C262.677 135.59 253.797 139.354 246.704 139.354V141.354C254.441 141.354 263.75 137.282 274.575 129.41L273.399 127.792ZM247.963 109.873C253.569 109.873 260.695 107.088 269.269 101.747L268.211 100.049C259.716 105.341 252.99 107.873 247.963 107.873V109.873ZM269.313 101.717C272.146 99.7348 274.905 97.5412 277.592 95.1374L276.258 93.6469C273.628 96.0001 270.931 98.1438 268.166 100.079L269.313 101.717ZM277.594 95.1354C280.44 92.5741 282.738 89.9938 284.473 87.3915L282.809 86.2821C281.186 88.7167 279.007 91.1733 276.256 93.6488L277.594 95.1354ZM284.451 87.4223C286.327 84.8259 287.369 82.3808 287.369 80.121H285.369C285.369 81.7787 284.593 83.8109 282.83 86.2513L284.451 87.4223ZM287.369 80.121C287.369 78.8873 286.841 77.8728 285.794 77.2245C284.825 76.6251 283.502 76.3927 281.962 76.3927V78.3927C283.36 78.3927 284.24 78.6149 284.741 78.925C285.163 79.1861 285.369 79.5357 285.369 80.121H287.369ZM281.962 76.3927C279.629 76.3927 276.941 77.2616 273.934 78.8722C270.915 80.4894 267.5 82.8956 263.692 86.0686L264.973 87.605C268.721 84.4819 272.021 82.1661 274.879 80.6352C277.748 79.0978 280.097 78.3927 281.962 78.3927V76.3927ZM263.687 86.0734C260.016 89.179 256.489 92.5655 253.104 96.2323L254.574 97.5888C257.905 93.9801 261.373 90.6508 264.979 87.6002L263.687 86.0734ZM253.104 96.2323C249.7 99.92 246.788 103.825 244.372 107.948L246.097 108.959C248.438 104.967 251.262 101.177 254.574 97.5888L253.104 96.2323ZM244.918 109.402C245.87 109.719 246.887 109.873 247.963 109.873V107.873C247.08 107.873 246.278 107.747 245.551 107.505L244.918 109.402ZM335.444 134.897L334.62 135.464L334.629 135.476L334.638 135.488L335.444 134.897ZM341.53 100.688L340.679 100.164L340.675 100.17L341.53 100.688ZM354.962 78.8618L355.814 79.3858L354.37 78.0561L354.962 78.8618ZM326.63 105.095L327.373 105.764L327.375 105.762L326.63 105.095ZM318.025 114.959L317.264 114.311L317.257 114.319L317.25 114.328L318.025 114.959ZM307.741 127.971L306.95 127.361L306.947 127.363L307.741 127.971ZM293.89 135.317L293.068 135.886L293.079 135.902L293.09 135.917L293.89 135.317ZM293.05 124.404L294.023 124.635L294.026 124.625L293.05 124.404ZM295.569 116.428L296.485 116.829L296.489 116.819L296.494 116.809L295.569 116.428ZM298.507 109.503L297.602 109.077L297.596 109.089L297.591 109.102L298.507 109.503ZM301.655 102.577L302.571 102.978L300.931 101.887L301.655 102.577ZM289.063 115.799L289.77 116.506L289.779 116.497L289.787 116.489L289.063 115.799ZM286.544 118.317L285.837 117.61L286.544 118.317ZM282.557 117.898L283.389 118.452L283.485 118.308L283.527 118.14L282.557 117.898ZM283.816 116.009L283.109 115.302L283.816 116.009ZM290.322 109.293L291.05 109.978L290.322 109.293ZM297.248 101.108L296.474 100.475L296.465 100.486L296.457 100.497L297.248 101.108ZM302.914 94.1823L303.688 94.8155L303.695 94.8071L303.702 94.7986L302.914 94.1823ZM311.099 83.8986L310.336 83.2527L310.328 83.2614L310.321 83.2703L311.099 83.8986ZM319.704 73.8249L320.461 74.4785L320.491 74.4436L320.518 74.4061L319.704 73.8249ZM322.012 71.936L322.329 72.8847L322.396 72.8623L322.46 72.8305L322.012 71.936ZM328.728 78.2321L329.538 78.8195L329.586 78.7529L329.623 78.6794L328.728 78.2321ZM306.062 117.898L305.099 117.631L304.086 121.288L306.769 118.605L306.062 117.898ZM345.098 81.3802L345.736 82.1502L345.737 82.1493L345.098 81.3802ZM371.332 70.0472L370.802 70.8952L370.824 70.9089L370.846 70.9214L371.332 70.0472ZM373.011 75.7137L373.93 76.1076L373.946 76.0694L373.96 76.0299L373.011 75.7137ZM364.406 87.4664L365.179 88.1012L365.188 88.0903L365.196 88.0792L364.406 87.4664ZM355.802 98.1698L355.014 97.5535L355.006 97.5643L354.997 97.5754L355.802 98.1698ZM349.925 106.565L349.086 106.021L349.084 106.024L349.925 106.565ZM344.259 117.688L345.195 118.039L345.2 118.026L344.259 117.688ZM342.79 129.86L341.809 130.056L342.79 129.86ZM360.419 123.564L361.051 124.339L361.063 124.329L361.075 124.319L360.419 123.564ZM369.443 115.169L370.15 115.876L370.159 115.868L370.167 115.859L369.443 115.169ZM377.418 106.565L376.711 105.857L376.692 105.876L376.675 105.896L377.418 106.565ZM380.146 103.417L380.92 104.05L380.934 104.033L380.946 104.017L380.146 103.417ZM382.245 105.515L381.351 105.068L381.341 105.088L381.331 105.109L382.245 105.515ZM380.356 108.453L379.649 107.746L379.62 107.776L379.593 107.807L380.356 108.453ZM373.431 116.009L372.708 115.318L372.7 115.326L372.692 115.334L373.431 116.009ZM363.357 125.873L362.693 125.125L362.685 125.131L362.679 125.138L363.357 125.873ZM352.654 134.477L353.216 135.304L352.654 134.477ZM343.419 137.045C339.808 137.045 337.527 136.046 336.251 134.306L334.638 135.488C336.44 137.946 339.475 139.045 343.419 139.045V137.045ZM336.268 134.331C334.864 132.287 334.136 129.766 334.136 126.712H332.136C332.136 130.094 332.947 133.029 334.62 135.464L336.268 134.331ZM334.136 126.712C334.136 118.831 336.853 110.335 342.386 101.207L340.675 100.17C335.014 109.51 332.136 118.363 332.136 126.712H334.136ZM342.382 101.212L355.814 79.3858L354.11 78.3377L340.679 100.164L342.382 101.212ZM354.37 78.0561C344.79 85.0997 335.296 93.8936 325.884 104.429L327.375 105.762C336.712 95.3104 346.106 86.6151 355.554 79.6674L354.37 78.0561ZM325.886 104.427C323.36 107.233 320.486 110.528 317.264 114.311L318.786 115.608C322 111.835 324.862 108.554 327.373 105.764L325.886 104.427ZM317.25 114.328C314.165 118.114 310.731 122.458 306.95 127.361L308.533 128.582C312.307 123.69 315.729 119.36 318.8 115.591L317.25 114.328ZM306.947 127.363C304.434 130.644 302.444 133.083 300.97 134.694C300.23 135.503 299.641 136.08 299.196 136.447C298.972 136.632 298.807 136.744 298.695 136.806C298.563 136.879 298.588 136.835 298.717 136.835V138.835C299.091 138.835 299.424 138.689 299.663 138.556C299.923 138.413 300.193 138.217 300.468 137.99C301.019 137.536 301.681 136.88 302.445 136.044C303.979 134.368 306.011 131.874 308.535 128.579L306.947 127.363ZM298.717 136.835C297.098 136.835 295.776 136.165 294.69 134.717L293.09 135.917C294.522 137.827 296.418 138.835 298.717 138.835V136.835ZM294.712 134.748C293.507 133.006 293.001 131.599 293.001 130.49H291.001C291.001 132.179 291.755 133.99 293.068 135.886L294.712 134.748ZM293.001 130.49C293.001 129.504 293.321 127.584 294.023 124.635L292.078 124.172C291.381 127.1 291.001 129.237 291.001 130.49H293.001ZM294.026 124.625C294.715 121.592 295.537 118.996 296.485 116.829L294.653 116.028C293.642 118.338 292.785 121.059 292.075 124.182L294.026 124.625ZM296.494 116.809C297.47 114.437 298.447 112.135 299.423 109.904L297.591 109.102C296.608 111.348 295.626 113.663 294.644 116.048L296.494 116.809ZM299.412 109.929C300.535 107.542 301.588 105.225 302.571 102.978L300.739 102.176C299.763 104.406 298.718 106.706 297.602 109.077L299.412 109.929ZM300.931 101.887L288.339 115.109L289.787 116.489L302.379 103.267L300.931 101.887ZM288.356 115.092C288.076 115.372 287.236 116.211 285.837 117.61L287.252 119.024C288.651 117.625 289.49 116.786 289.77 116.506L288.356 115.092ZM285.837 117.61C285.168 118.28 284.598 118.748 284.126 119.043C283.642 119.346 283.34 119.416 283.187 119.416V121.416C283.872 121.416 284.55 121.136 285.186 120.739C285.833 120.335 286.522 119.754 287.252 119.024L285.837 117.61ZM283.187 119.416C283.128 119.416 283.124 119.406 283.15 119.418C283.182 119.433 283.205 119.455 283.213 119.467C283.217 119.473 283.197 119.447 283.176 119.358C283.154 119.269 283.137 119.135 283.137 118.947H281.137C281.137 119.525 281.235 120.139 281.586 120.63C281.981 121.183 282.574 121.416 283.187 121.416V119.416ZM283.137 118.947C283.137 118.97 283.133 118.941 283.171 118.846C283.208 118.753 283.275 118.623 283.389 118.452L281.725 117.343C281.412 117.812 281.137 118.367 281.137 118.947H283.137ZM283.527 118.14C283.602 117.841 283.871 117.368 284.523 116.716L283.109 115.302C282.362 116.049 281.792 116.835 281.587 117.655L283.527 118.14ZM284.523 116.716C286.63 114.609 288.805 112.363 291.05 109.978L289.594 108.608C287.362 110.979 285.2 113.211 283.109 115.302L284.523 116.716ZM291.05 109.978C293.315 107.572 295.644 104.818 298.039 101.719L296.457 100.497C294.094 103.554 291.807 106.257 289.594 108.608L291.05 109.978ZM298.022 101.741C299.281 100.202 301.17 97.8936 303.688 94.8155L302.14 93.549C299.622 96.6271 297.733 98.9357 296.474 100.475L298.022 101.741ZM303.702 94.7986C306.217 91.5851 308.942 88.1613 311.877 84.527L310.321 83.2703C307.38 86.9115 304.649 90.3434 302.127 93.5659L303.702 94.7986ZM311.863 84.5446C314.939 80.909 317.805 77.5536 320.461 74.4785L318.947 73.1712C316.286 76.2523 313.416 79.6128 310.336 83.2527L311.863 84.5446ZM320.518 74.4061C321.138 73.5378 321.751 73.0774 322.329 72.8847L321.696 70.9874C320.595 71.3543 319.669 72.1531 318.89 73.2436L320.518 74.4061ZM322.46 72.8305C322.864 72.6285 323.179 72.488 323.413 72.4002C323.679 72.3005 323.744 72.3064 323.691 72.3064V70.3064C323.359 70.3064 323.005 70.4173 322.711 70.5275C322.385 70.6496 322.001 70.8238 321.565 71.0416L322.46 72.8305ZM323.691 72.3064C325.478 72.3064 326.634 72.6586 327.327 73.1976C327.973 73.6995 328.358 74.4753 328.358 75.7137H330.358C330.358 74.014 329.799 72.5861 328.555 71.6189C327.359 70.6888 325.682 70.3064 323.691 70.3064V72.3064ZM328.358 75.7137C328.358 76.3804 328.192 77.0677 327.834 77.7849L329.623 78.6794C330.104 77.7176 330.358 76.7259 330.358 75.7137H328.358ZM327.919 77.6447C315.323 94.999 307.669 108.347 305.099 117.631L307.026 118.164C309.492 109.259 316.949 96.1638 329.538 78.8195L327.919 77.6447ZM306.769 118.605C322.992 102.382 335.978 90.2355 345.736 82.1502L344.46 80.6102C334.63 88.7548 321.593 100.953 305.355 117.19L306.769 118.605ZM345.737 82.1493C350.683 78.0394 354.886 74.9818 358.352 72.9569C361.852 70.9124 364.474 69.9979 366.295 69.9979V67.9979C363.918 67.9979 360.909 69.147 357.343 71.23C353.744 73.3325 349.447 76.4661 344.459 80.6111L345.737 82.1493ZM366.295 69.9979C368.462 69.9979 369.917 70.3423 370.802 70.8952L371.862 69.1992C370.508 68.353 368.605 67.9979 366.295 67.9979V69.9979ZM370.846 70.9214C371.676 71.3825 372.221 72.2904 372.221 74.0347H374.221C374.221 71.8615 373.506 70.111 371.818 69.1731L370.846 70.9214ZM372.221 74.0347C372.221 74.6817 372.154 75.1212 372.062 75.3975L373.96 76.0299C374.147 75.4667 374.221 74.7869 374.221 74.0347H372.221ZM372.092 75.3198C372.029 75.4662 371.823 75.8211 371.407 76.4417C371.007 77.0378 370.451 77.8212 369.738 78.7957C368.312 80.7434 366.272 83.4283 363.616 86.8536L365.196 88.0792C367.857 84.6488 369.91 81.947 371.352 79.9772C372.072 78.9928 372.645 78.1848 373.067 77.5566C373.472 76.953 373.783 76.4509 373.93 76.1076L372.092 75.3198ZM363.633 86.8317C360.412 90.754 357.538 94.328 355.014 97.5535L356.589 98.7861C359.102 95.5756 361.965 92.014 365.179 88.1012L363.633 86.8317ZM354.997 97.5754C352.611 100.804 350.639 103.62 349.086 106.021L350.765 107.108C352.289 104.752 354.235 101.972 356.606 98.7642L354.997 97.5754ZM349.084 106.024C346.535 109.99 344.608 113.765 343.318 117.349L345.2 118.026C346.428 114.615 348.279 110.975 350.766 107.105L349.084 106.024ZM343.322 117.337C342.04 120.755 341.37 123.749 341.37 126.292H343.37C343.37 124.078 343.959 121.336 345.195 118.039L343.322 117.337ZM341.37 126.292C341.37 127.36 341.522 128.619 341.809 130.056L343.77 129.664C343.498 128.303 343.37 127.184 343.37 126.292H341.37ZM341.809 130.056C341.98 130.911 342.346 131.667 342.989 132.202C343.634 132.74 344.441 132.959 345.308 132.959V130.959C344.775 130.959 344.464 130.828 344.269 130.666C344.072 130.502 343.879 130.209 343.77 129.664L341.809 130.056ZM345.308 132.959C347.174 132.959 349.418 132.16 351.985 130.734C354.575 129.295 357.599 127.157 361.051 124.339L359.786 122.789C356.383 125.568 353.461 127.627 351.014 128.986C348.543 130.358 346.661 130.959 345.308 130.959V132.959ZM361.075 124.319C364.309 121.506 367.334 118.692 370.15 115.876L368.736 114.462C365.955 117.243 362.964 120.025 359.763 122.809L361.075 124.319ZM370.167 115.859C372.971 112.914 375.636 110.039 378.161 107.234L376.675 105.896C374.163 108.686 371.511 111.548 368.719 114.48L370.167 115.859ZM378.125 107.272C378.724 106.673 379.662 105.588 380.92 104.05L379.372 102.783C378.112 104.324 377.231 105.337 376.711 105.857L378.125 107.272ZM380.946 104.017C381.57 103.185 382.054 102.587 382.405 102.203C382.583 102.009 382.705 101.895 382.778 101.836C382.815 101.807 382.817 101.81 382.79 101.824C382.776 101.831 382.651 101.898 382.455 101.898V99.8981C382.189 99.8981 381.979 99.9913 381.865 100.051C381.737 100.118 381.623 100.199 381.529 100.275C381.339 100.426 381.138 100.626 380.931 100.852C380.513 101.308 379.982 101.969 379.346 102.817L380.946 104.017ZM382.455 101.898C382.42 101.898 382.345 101.886 382.268 101.835C382.197 101.788 382.18 101.744 382.19 101.765C382.203 101.79 382.232 101.863 382.256 102.007C382.279 102.149 382.294 102.336 382.294 102.577H384.294C384.294 101.966 384.223 101.359 383.979 100.871C383.85 100.612 383.658 100.358 383.377 100.171C383.09 99.9797 382.77 99.8981 382.455 99.8981V101.898ZM382.294 102.577C382.294 102.683 382.254 102.937 382.09 103.395C381.934 103.833 381.691 104.388 381.351 105.068L383.14 105.962C383.499 105.243 383.781 104.609 383.974 104.068C384.16 103.546 384.294 103.031 384.294 102.577H382.294ZM381.331 105.109C380.803 106.297 380.235 107.16 379.649 107.746L381.063 109.161C381.877 108.347 382.568 107.252 383.159 105.921L381.331 105.109ZM379.593 107.807C378.074 109.603 375.782 112.104 372.708 115.318L374.153 116.7C377.236 113.478 379.561 110.942 381.12 109.099L379.593 107.807ZM372.692 115.334C369.781 118.523 366.448 121.787 362.693 125.125L364.021 126.62C367.821 123.243 371.204 119.93 374.169 116.683L372.692 115.334ZM362.679 125.138C359.071 128.468 355.542 131.304 352.091 133.65L353.216 135.304C356.761 132.894 360.367 129.993 364.035 126.607L362.679 125.138ZM352.091 133.65C348.669 135.977 345.79 137.045 343.419 137.045V139.045C346.365 139.045 349.642 137.734 353.216 135.304L352.091 133.65ZM377.695 117.058L376.784 116.646L376.781 116.653L376.778 116.66L377.695 117.058ZM385.88 103.417L386.686 104.009L385.194 102.69L385.88 103.417ZM382.103 106.984L381.416 106.257L382.103 106.984ZM373.498 116.009L374.205 116.716L374.227 116.694L374.247 116.671L373.498 116.009ZM372.448 112.231L371.687 111.583L371.667 111.606L371.648 111.631L372.448 112.231ZM401.411 78.2321L400.655 77.5772L400.649 77.5837L401.411 78.2321ZM416.941 78.442L417.629 79.168L417.638 79.1587L417.648 79.1491L416.941 78.442ZM407.077 89.1454L406.315 88.4984L406.309 88.5052L406.303 88.5121L407.077 89.1454ZM386.72 119.367L385.83 118.909L385.825 118.919L386.72 119.367ZM390.287 133.638L390.604 134.586L390.632 134.577L390.659 134.566L390.287 133.638ZM398.682 128.811L399.245 129.638L399.256 129.63L399.267 129.622L398.682 128.811ZM411.274 117.268L410.567 116.561L410.557 116.571L410.548 116.581L411.274 117.268ZM417.99 109.713L418.746 110.368L417.99 109.713ZM432.681 91.6638L431.902 91.0371L431.895 91.046L432.681 91.6638ZM461.643 76.9729L460.649 77.0834L460.655 77.1371L460.667 77.1899L461.643 76.9729ZM452.829 89.3552L452.078 88.6946L452.068 88.7063L452.058 88.7184L452.829 89.3552ZM436.459 110.132L435.64 109.559L435.634 109.568L436.459 110.132ZM439.397 130.49L439.917 131.344L439.927 131.338L439.397 130.49ZM449.891 122.725L450.536 123.488L450.545 123.481L450.553 123.474L449.891 122.725ZM460.384 112.861L459.677 112.154L460.384 112.861ZM469.408 103.207L468.649 102.556V102.556L469.408 103.207ZM472.976 104.256L472.006 104.013V104.013L472.976 104.256ZM471.717 106.145L471.01 105.438L470.989 105.459L470.97 105.48L471.717 106.145ZM463.112 115.589L463.833 116.282L463.84 116.275L463.846 116.268L463.112 115.589ZM451.779 126.502L452.447 127.247L451.779 126.502ZM440.027 135.527L439.494 134.68L440.027 135.527ZM421.978 136.576L421.37 137.37L421.385 137.382L421.401 137.393L421.978 136.576ZM419.879 119.996L420.832 120.299L420.836 120.287L419.879 119.996ZM422.188 111.811L423.158 112.054L421.427 111.162L422.188 111.811ZM404.768 129.44L404.141 128.662L404.13 128.67L404.768 129.44ZM392.386 137.625L392.001 136.702L391.985 136.709L391.969 136.716L392.386 137.625ZM384.411 138.934C381.488 138.934 379.452 138.02 378.113 136.324C376.738 134.582 375.967 131.854 375.967 127.971H373.967C373.967 132.063 374.77 135.317 376.543 137.563C378.352 139.854 381.038 140.934 384.411 140.934V138.934ZM375.967 127.971C375.967 125.08 376.824 121.583 378.613 117.456L376.778 116.66C374.928 120.928 373.967 124.707 373.967 127.971H375.967ZM378.607 117.47C380.531 113.209 383.22 108.722 386.686 104.009L385.074 102.824C381.545 107.625 378.777 112.232 376.784 116.646L378.607 117.47ZM385.88 103.417C385.194 102.69 385.194 102.69 385.194 102.69C385.194 102.69 385.193 102.69 385.193 102.69C385.193 102.69 385.193 102.69 385.193 102.69C385.193 102.69 385.193 102.69 385.193 102.69C385.193 102.69 385.193 102.69 385.193 102.69C385.191 102.692 385.193 102.69 385.191 102.691C385.191 102.692 385.191 102.692 385.19 102.693C385.181 102.702 385.19 102.693 385.179 102.703C385.172 102.71 385.151 102.73 385.135 102.745C385.12 102.759 385.085 102.792 385.061 102.815C385.035 102.839 384.993 102.879 384.957 102.913C384.947 102.923 384.938 102.93 384.927 102.941C384.889 102.977 384.934 102.935 384.895 102.972C384.88 102.986 384.876 102.99 384.861 103.004C384.844 103.02 384.86 103.005 384.843 103.021C384.84 103.023 384.827 103.036 384.825 103.038C384.733 103.125 384.764 103.095 384.662 103.191C384.635 103.217 384.645 103.208 384.617 103.234C384.591 103.258 384.62 103.231 384.594 103.256C384.592 103.258 384.59 103.26 384.588 103.261C384.586 103.263 384.584 103.265 384.582 103.267C384.58 103.269 384.578 103.271 384.576 103.273C384.574 103.275 384.572 103.276 384.57 103.278C384.568 103.28 384.475 103.368 384.47 103.372C384.446 103.396 384.469 103.373 384.444 103.397C384.441 103.4 384.434 103.407 384.431 103.409C384.429 103.412 384.427 103.414 384.425 103.416C384.422 103.418 384.42 103.42 384.418 103.422C384.396 103.443 384.413 103.426 384.391 103.448C384.333 103.502 384.422 103.419 384.363 103.473C384.357 103.48 384.315 103.519 384.307 103.527C384.305 103.529 384.302 103.531 384.3 103.533C384.298 103.536 384.295 103.538 384.293 103.54C384.29 103.542 384.288 103.545 384.286 103.547C384.283 103.549 384.281 103.552 384.278 103.554C384.273 103.559 384.254 103.576 384.249 103.581C384.17 103.656 384.087 103.735 383.998 103.818C383.944 103.869 384.035 103.783 383.982 103.834C383.971 103.844 383.975 103.84 383.965 103.85C383.962 103.853 383.959 103.855 383.956 103.858C383.954 103.861 383.951 103.863 383.948 103.866C383.891 103.92 383.988 103.828 383.931 103.882C383.926 103.887 383.902 103.909 383.897 103.914C383.88 103.93 383.878 103.932 383.862 103.947C383.845 103.963 383.737 104.065 383.718 104.083C383.58 104.213 383.556 104.236 383.408 104.376C383.304 104.474 383.348 104.432 383.242 104.533C383.194 104.578 383.248 104.527 383.199 104.573C383.178 104.593 383.178 104.593 383.156 104.614C383.105 104.662 383.164 104.607 383.113 104.655C383.063 104.702 383.14 104.629 383.091 104.676C383.059 104.706 383.1 104.666 383.069 104.696C383.031 104.732 383.017 104.745 382.979 104.781C382.922 104.835 382.946 104.812 382.888 104.867C382.838 104.914 382.845 104.907 382.795 104.955C382.774 104.974 382.768 104.98 382.747 105C382.743 105.003 382.74 105.007 382.736 105.011C382.732 105.015 382.728 105.018 382.724 105.022C382.719 105.026 382.704 105.041 382.7 105.045C382.665 105.078 382.638 105.103 382.603 105.136C382.585 105.153 382.523 105.212 382.504 105.229C382.5 105.233 382.496 105.237 382.492 105.241C382.488 105.245 382.483 105.249 382.479 105.253C382.475 105.257 382.471 105.261 382.467 105.265C382.462 105.269 382.458 105.273 382.454 105.277C382.45 105.281 382.446 105.285 382.442 105.289C382.437 105.293 382.433 105.297 382.429 105.301C382.425 105.304 382.421 105.308 382.416 105.312C382.412 105.316 382.408 105.32 382.404 105.324C382.399 105.328 382.395 105.332 382.391 105.336C382.387 105.34 382.382 105.344 382.378 105.348C382.374 105.352 382.37 105.356 382.365 105.36C382.361 105.364 382.357 105.369 382.353 105.373C382.348 105.377 382.344 105.381 382.34 105.385C382.336 105.389 382.331 105.393 382.327 105.397C382.291 105.431 382.337 105.387 382.301 105.421C382.274 105.447 382.277 105.444 382.249 105.47C382.245 105.474 382.241 105.478 382.236 105.482C382.232 105.487 382.228 105.491 382.223 105.495C382.219 105.499 382.215 105.503 382.21 105.507C382.206 105.511 382.201 105.515 382.197 105.52C382.153 105.561 382.215 105.503 382.171 105.544C382.13 105.583 382.185 105.531 382.144 105.569C382.13 105.583 382.132 105.581 382.118 105.594C382.113 105.599 382.109 105.603 382.104 105.607C382.1 105.611 382.095 105.615 382.091 105.62C382.032 105.675 381.934 105.768 381.873 105.825C381.869 105.83 381.864 105.834 381.859 105.838C381.855 105.843 381.85 105.847 381.846 105.851C381.841 105.856 381.836 105.86 381.832 105.865C381.827 105.869 381.822 105.873 381.818 105.878C381.785 105.909 381.823 105.873 381.79 105.904C381.785 105.909 381.78 105.913 381.776 105.917C381.771 105.922 381.766 105.926 381.762 105.931C381.757 105.935 381.752 105.94 381.748 105.944C381.743 105.948 381.738 105.953 381.734 105.957C381.729 105.962 381.724 105.966 381.719 105.971C381.715 105.975 381.71 105.98 381.705 105.984C381.701 105.988 381.696 105.993 381.691 105.997C381.686 106.002 381.682 106.006 381.677 106.011C381.636 106.049 381.689 105.999 381.648 106.038C381.644 106.042 381.639 106.047 381.634 106.051C381.629 106.056 381.624 106.06 381.62 106.065C381.615 106.069 381.61 106.074 381.605 106.078C381.6 106.083 381.596 106.087 381.591 106.092C381.535 106.145 381.589 106.094 381.533 106.147C381.528 106.151 381.523 106.156 381.518 106.16C381.514 106.165 381.509 106.17 381.504 106.174C381.484 106.193 381.495 106.183 381.475 106.202C381.438 106.236 381.453 106.223 381.416 106.257L382.789 107.711C383.403 107.132 383.986 106.581 384.442 106.15C384.476 106.118 384.452 106.141 384.486 106.109C384.537 106.061 384.479 106.116 384.529 106.068C384.568 106.032 384.513 106.083 384.551 106.047C384.555 106.044 384.558 106.04 384.562 106.037C384.565 106.034 384.569 106.03 384.573 106.027C384.594 106.007 384.594 106.006 384.615 105.987C384.686 105.92 384.713 105.895 384.781 105.83C384.823 105.79 384.82 105.793 384.861 105.754C384.891 105.726 384.911 105.707 384.94 105.68C384.959 105.662 385.075 105.553 385.091 105.537C385.1 105.529 385.155 105.477 385.164 105.468C385.192 105.442 385.171 105.461 385.2 105.435C385.223 105.413 385.195 105.439 385.217 105.418C385.234 105.403 385.219 105.417 385.235 105.401C385.257 105.381 385.283 105.356 385.304 105.336C385.319 105.322 385.357 105.286 385.371 105.272C385.46 105.189 385.544 105.11 385.622 105.035C385.906 104.767 386.204 104.486 386.331 104.367C386.374 104.326 386.401 104.3 386.434 104.269C386.469 104.236 386.483 104.223 386.508 104.199C386.563 104.147 386.507 104.2 386.552 104.157C386.558 104.152 386.56 104.15 386.563 104.147C386.565 104.146 386.565 104.145 386.566 104.144C386.566 104.144 386.566 104.144 386.566 104.144C386.566 104.144 386.566 104.144 386.566 104.144C386.566 104.144 386.566 104.144 386.567 104.144C386.567 104.144 386.567 104.144 386.567 104.144C386.567 104.144 386.567 104.144 386.567 104.144C386.567 104.144 386.567 104.144 386.567 104.144C386.567 104.144 386.567 104.144 385.88 103.417ZM381.416 106.257C378.869 108.663 375.979 111.694 372.749 115.346L374.247 116.671C377.452 113.048 380.299 110.063 382.789 107.711L381.416 106.257ZM372.791 115.302C372.431 115.661 371.991 115.848 371.399 115.848V117.848C372.486 117.848 373.445 117.475 374.205 116.716L372.791 115.302ZM371.399 115.848C371.362 115.848 371.375 115.842 371.416 115.86C371.438 115.868 371.462 115.882 371.488 115.901C371.513 115.92 371.534 115.941 371.55 115.961C371.583 116.002 371.585 116.025 371.578 116C371.571 115.973 371.56 115.91 371.56 115.799H369.56C369.56 116.255 369.647 116.783 369.989 117.211C370.365 117.681 370.899 117.848 371.399 117.848V115.848ZM371.56 115.799C371.56 115.703 371.619 115.411 371.916 114.85C372.196 114.32 372.635 113.649 373.248 112.831L371.648 111.631C371.003 112.492 370.497 113.256 370.148 113.914C369.815 114.543 369.56 115.195 369.56 115.799H371.56ZM373.21 112.88L402.172 78.8806L400.649 77.5837L371.687 111.583L373.21 112.88ZM402.166 78.8871C405.671 74.8429 409.403 72.936 413.373 72.936V70.936C408.669 70.936 404.425 73.2266 400.655 77.5772L402.166 78.8871ZM413.373 72.936C414.879 72.936 415.824 73.2353 416.377 73.668C416.883 74.0641 417.2 74.6829 417.2 75.7137H419.2C419.2 74.2261 418.712 72.956 417.61 72.0929C416.553 71.2664 415.085 70.936 413.373 70.936V72.936ZM417.2 75.7137C417.2 76.3733 416.928 77.0405 416.234 77.7349L417.648 79.1491C418.633 78.1646 419.2 77.0129 419.2 75.7137H417.2ZM416.253 77.7161C413.557 80.2702 410.243 83.8689 406.315 88.4984L407.84 89.7924C411.747 85.1875 415.008 81.6507 417.629 79.168L416.253 77.7161ZM406.303 88.5121C402.506 93.1531 398.781 98.143 395.129 103.481L396.779 104.611C400.402 99.3158 404.093 94.372 407.851 89.7786L406.303 88.5121ZM395.129 103.481C391.471 108.827 388.371 113.97 385.83 118.909L387.609 119.824C390.105 114.97 393.161 109.899 396.779 104.611L395.129 103.481ZM385.825 118.919C383.425 123.72 382.152 127.736 382.152 130.91H384.152C384.152 128.206 385.257 124.527 387.614 119.814L385.825 118.919ZM382.152 130.91C382.152 132.248 382.369 133.427 382.949 134.297C383.577 135.239 384.539 135.687 385.67 135.687V133.687C385.122 133.687 384.825 133.505 384.613 133.188C384.354 132.799 384.152 132.089 384.152 130.91H382.152ZM385.67 135.687C386.825 135.687 388.499 135.288 390.604 134.586L389.971 132.689C387.879 133.387 386.474 133.687 385.67 133.687V135.687ZM390.659 134.566C392.859 133.686 395.729 132.028 399.245 129.638L398.12 127.984C394.64 130.35 391.913 131.911 389.916 132.709L390.659 134.566ZM399.267 129.622C402.838 127.051 407.085 123.152 412.001 117.955L410.548 116.581C405.67 121.737 401.522 125.534 398.098 127.999L399.267 129.622ZM411.982 117.975C412.853 117.104 415.119 114.552 418.746 110.368L417.235 109.058C413.586 113.268 411.375 115.753 410.567 116.561L411.982 117.975ZM418.746 110.368C422.399 106.152 427.308 100.121 433.467 92.2816L431.895 91.046C425.742 98.8767 420.857 104.878 417.235 109.058L418.746 110.368ZM433.46 92.2905C438.907 85.5173 443.387 80.468 446.907 77.1204C448.668 75.4454 450.165 74.2195 451.404 73.4185C452.673 72.5981 453.546 72.3064 454.088 72.3064V70.3064C452.951 70.3064 451.673 70.863 450.318 71.7391C448.933 72.6345 447.335 73.9533 445.529 75.6711C441.913 79.1093 437.369 84.2387 431.902 91.0372L433.46 92.2905ZM454.088 72.3064C456.277 72.3064 457.818 72.7565 458.84 73.5231C459.833 74.2681 460.463 75.4075 460.649 77.0834L462.637 76.8625C462.404 74.7607 461.565 73.0668 460.04 71.9231C458.543 70.8008 456.516 70.3064 454.088 70.3064V72.3064ZM460.667 77.1899C460.653 77.1255 460.677 77.1494 460.631 77.323C460.588 77.4837 460.502 77.7105 460.353 78.0126C460.055 78.6165 459.556 79.4194 458.835 80.433C457.396 82.4546 455.149 85.205 452.078 88.6946L453.579 90.0159C456.665 86.5098 458.965 83.6987 460.464 81.5928C461.212 80.5427 461.78 79.6404 462.146 78.8977C462.33 78.5264 462.475 78.1696 462.564 77.8362C462.649 77.5157 462.704 77.1352 462.619 76.756L460.667 77.1899ZM452.058 88.7184C444.083 98.3721 438.603 105.325 435.64 109.559L437.278 110.706C440.191 106.545 445.624 99.6465 453.6 89.9921L452.058 88.7184ZM435.634 109.568C430.168 117.555 427.274 124.003 427.274 128.811H429.274C429.274 124.664 431.836 118.659 437.284 110.697L435.634 109.568ZM427.274 128.811C427.274 130.432 427.545 131.825 428.235 132.837C428.972 133.918 430.091 134.428 431.422 134.428V132.428C430.654 132.428 430.2 132.169 429.887 131.71C429.528 131.183 429.274 130.267 429.274 128.811H427.274ZM431.422 134.428C433.799 134.428 436.65 133.333 439.917 131.344L438.877 129.636C435.708 131.564 433.243 132.428 431.422 132.428V134.428ZM439.927 131.338C443.333 129.209 446.869 126.591 450.536 123.488L449.245 121.961C445.636 125.014 442.177 127.573 438.867 129.642L439.927 131.338ZM450.553 123.474C454.206 120.242 457.718 116.94 461.091 113.568L459.677 112.154C456.334 115.497 452.851 118.771 449.228 121.976L450.553 123.474ZM461.091 113.568C464.602 110.057 467.629 106.82 470.168 103.857L468.649 102.556C466.151 105.47 463.161 108.669 459.677 112.154L461.091 113.568ZM470.168 103.857C470.919 102.98 471.506 102.738 471.927 102.738V100.738C470.668 100.738 469.576 101.474 468.649 102.556L470.168 103.857ZM471.927 102.738C472.192 102.738 472.208 102.803 472.164 102.759C472.12 102.716 472.186 102.731 472.186 102.997H474.186C474.186 102.423 474.042 101.809 473.578 101.345C473.115 100.882 472.501 100.738 471.927 100.738V102.738ZM472.186 102.997C472.186 103.147 472.142 103.468 472.006 104.013L473.946 104.499C474.09 103.925 474.186 103.406 474.186 102.997H472.186ZM472.006 104.013C471.931 104.312 471.662 104.786 471.01 105.438L472.424 106.852C473.171 106.105 473.741 105.319 473.946 104.499L472.006 104.013ZM470.97 105.48C468.737 107.992 465.874 111.135 462.379 114.91L463.846 116.268C467.346 112.488 470.22 109.335 472.464 106.809L470.97 105.48ZM462.391 114.896C458.912 118.514 455.152 122.135 451.112 125.758L452.447 127.247C456.521 123.594 460.317 119.939 463.833 116.282L462.391 114.896ZM451.112 125.758C447.087 129.366 443.215 132.338 439.494 134.68L440.559 136.373C444.394 133.959 448.356 130.914 452.447 127.247L451.112 125.758ZM439.494 134.68C435.779 137.019 432.754 138.094 430.373 138.094V140.094C433.308 140.094 436.719 138.791 440.559 136.373L439.494 134.68ZM430.373 138.094C427.338 138.094 424.747 137.306 422.554 135.759L421.401 137.393C423.966 139.203 426.971 140.094 430.373 140.094V138.094ZM422.585 135.782C420.462 134.158 419.41 132.007 419.41 129.231H417.41C417.41 132.61 418.736 135.356 421.37 137.37L422.585 135.782ZM419.41 129.231C419.41 126.26 419.882 123.284 420.832 120.299L418.926 119.693C417.917 122.864 417.41 126.045 417.41 129.231H419.41ZM420.836 120.287C421.818 117.06 422.593 114.314 423.158 112.054L421.218 111.569C420.663 113.786 419.899 116.497 418.922 119.705L420.836 120.287ZM421.427 111.162C414.872 118.833 409.111 124.658 404.141 128.662L405.396 130.219C410.5 126.108 416.352 120.18 422.948 112.461L421.427 111.162ZM404.13 128.67C399.262 132.704 395.224 135.36 392.001 136.702L392.771 138.548C396.264 137.093 400.481 134.291 405.406 130.21L404.13 128.67ZM391.969 136.716C388.647 138.239 386.149 138.934 384.411 138.934V140.934C386.591 140.934 389.41 140.09 392.803 138.534L391.969 136.716Z" fill="url(#paint0_linear_26_14)" fill-opacity="0.08" mask="url(#path-1-outside-1_26_14)"/>
<defs>
<linearGradient id="paint0_linear_26_14" x1="399.793" y1="-19.3747" x2="32.7959" y2="89.5019" gradientUnits="userSpaceOnUse">
<stop stop-color="#FF6533"/>
<stop offset="1" stop-color="#FFA733"/>
</linearGradient>
</defs>
</svg>
